<svg width="710" height="79" viewBox="0 0 710 79" fill="none" xmlns="http://www.w3.org/2000/svg">
<g clip-path="url(#clip0_274_897)">
<path d="M15.744 20.688L10.8 21.988V13.54H15.84V9.364H10.8V0.0039978H6.43198V9.412H0.531982V13.54H6.43198V23.188C4.03198 23.764 1.824 24.288 0 24.724L1.15198 28.996C2.83198 28.564 4.55998 28.084 6.43198 27.556V38.928C6.43198 39.6 6.19198 39.84 5.47198 39.84C4.89598 39.888 2.87997 39.888 0.771973 39.84C1.38261 41.1238 1.8327 42.478 2.112 43.872C5.376 43.92 7.53598 43.772 8.92798 43.104C10.32 42.436 10.8 41.232 10.8 38.928V26.304L16.272 24.72L15.744 20.688ZM36.48 21.936C34.8775 25.696 32.4863 29.068 29.468 31.824C26.6977 28.9806 24.5124 25.6211 23.036 21.936H36.48ZM39.264 17.712L38.496 17.856H31.68V11.28H42.768V7.2H31.68V0H27.268V7.2H16.516V11.28H27.268V17.856H17.38V21.936H19.3L18.676 22.128C20.3533 26.7024 22.8773 30.92 26.116 34.56C22.3534 37.0792 18.1761 38.9153 13.776 39.984C14.7392 41.2239 15.5453 42.5782 16.176 44.016C20.8919 42.6953 25.33 40.5325 29.276 37.632C32.9146 40.6476 37.152 42.8563 41.708 44.112C42.4714 42.7101 43.4423 41.4316 44.588 40.32C40.3273 39.253 36.3171 37.3614 32.784 34.752C37.272 30.3909 40.5048 24.9034 42.144 18.864L39.264 17.712ZM99.12 2.688H87.792V6.672H99.12V2.688ZM87.12 7.68C86.1312 5.38026 84.8745 3.20522 83.376 1.2L80.448 2.544C81.8859 4.60615 83.078 6.82921 84 9.168L87.12 7.68ZM63.648 0C61.5592 3.64758 58.7503 6.83215 55.392 9.36C56.064 10.224 57.216 11.808 57.792 12.72C61.7033 9.53358 65.0606 5.72214 67.728 1.44L63.648 0ZM69.456 19.728C69.072 25.728 68.356 31.776 66.528 35.712C67.596 36.326 68.6079 37.0327 69.552 37.824C71.616 33.456 72.576 26.924 73.104 20.208L69.456 19.728ZM86.304 14.448V10.32H79.488V0.720001H75.312V10.32H68.544V10.944L64.896 9.744C62.5423 14.8964 59.0847 19.4683 54.768 23.136C55.6994 24.3999 56.5351 25.7316 57.268 27.12C58.5669 25.9713 59.7857 24.735 60.916 23.42V44.064H65.044V18C66.3386 16.0428 67.5076 14.0054 68.544 11.9V14.444H75.312V43.344H79.488V14.444L86.304 14.448ZM81.264 20.448C82.2987 25.1164 83.0349 29.846 83.468 34.608L86.968 33.984C86.5422 29.2081 85.7398 24.4734 84.568 19.824L81.264 20.448ZM99.84 15.888H86.64V19.92H91.54V38.928C91.54 39.552 91.348 39.744 90.724 39.744C90.052 39.792 87.988 39.792 85.732 39.696C86.3112 41.0838 86.7299 42.5332 86.98 44.016C90.244 44.016 92.452 43.968 93.94 43.296C95.428 42.528 95.764 41.232 95.764 39.024V19.924H99.844L99.84 15.888ZM133.34 10.176V0.0960007H128.64V10.172H113.52V14.732H128.4C127.68 23.372 124.56 33.548 112.08 40.7C113.386 41.7417 114.548 42.9523 115.536 44.3C129.168 36.236 132.436 24.62 133.152 14.732H148.176C147.36 30.432 146.352 37.004 144.72 38.54C144.429 38.8172 144.08 39.0257 143.698 39.1502C143.316 39.2748 142.91 39.3123 142.512 39.26C141.312 39.26 138.384 39.26 135.212 38.972C136.07 40.3738 136.611 41.9467 136.796 43.58C139.337 43.75 141.887 43.75 144.428 43.58C145.281 43.5574 146.119 43.348 146.883 42.9665C147.647 42.5851 148.317 42.0408 148.848 41.372C150.96 38.924 151.872 31.82 152.928 12.38C152.976 11.756 153.028 10.172 153.028 10.172L133.34 10.176ZM314.64 7.968H300.048V4.8H314.64V7.968ZM314.64 14.16H300.048V10.992H314.64V14.16ZM318.912 1.536H295.968V17.472H318.912V1.536ZM293.184 24.624L292.56 20.592L287.952 21.936V13.488H293.04V9.36H287.952V0.0960007H283.868V9.36H278.3V13.488H283.868V23.136C281.612 23.76 279.5 24.336 277.82 24.768L278.828 29.088L283.868 27.552V38.688C283.868 39.36 283.628 39.552 283.052 39.552C282.524 39.552 280.752 39.552 278.828 39.504C279.434 40.8114 279.839 42.2032 280.028 43.632C283.052 43.632 284.972 43.488 286.268 42.768C287.516 42.096 287.948 40.896 287.948 38.688V26.256L293.184 24.624ZM309.408 32.592H319.008V29.04H309.408V24.048H321.408V20.4H293.708V24.048H305.228V38.064C302.928 36.964 301.1 34.896 299.852 31.44C300.242 29.7768 300.547 28.0946 300.764 26.4L296.732 25.92C295.968 32.688 293.904 38.064 289.728 41.372C290.945 42.1392 292.072 43.0409 293.088 44.06C295.525 41.7963 297.385 38.9818 298.512 35.852C301.632 42.188 306.624 43.388 313.296 43.388H321.552C321.771 42.0227 322.191 40.6976 322.8 39.456C321.024 39.504 314.784 39.504 313.392 39.504C312.06 39.5227 310.728 39.4424 309.408 39.264V32.592ZM340.032 7.152H371.952V10.464H376.224V3.408H358.176V0H353.712V3.408H335.904V10.464H340.032V7.152ZM363.068 15.072C361.987 17.0084 360.37 18.5917 358.412 19.632C355.052 18.816 351.692 18.096 348.62 17.52C349.244 16.704 349.92 15.888 350.54 15.072H363.068ZM345.548 21.264L346.364 20.304C348.428 20.736 350.588 21.216 352.796 21.792C347.49 22.9473 342.094 23.6379 336.668 23.856C337.326 24.9256 337.812 26.0918 338.108 27.312C347.756 26.64 354.38 25.44 359.036 23.424C363.37 24.5513 367.634 25.9296 371.808 27.552L374.496 24.432C371.568 23.332 367.632 22.08 363.312 20.932C365.285 19.3787 366.849 17.3671 367.868 15.072H376.7V11.472H353.328C354.096 10.464 354.816 9.504 355.488 8.544L351.312 7.344C350.4 8.644 349.344 10.032 348.288 11.472H335.424V15.072H345.504C344.016 16.896 342.624 18.624 341.376 19.972L345.548 21.264ZM377.468 32.784V29.084H358.08V25.384H353.616V29.084H334.608V32.784H350.352C346.176 36 339.648 38.64 333.6 39.84C334.65 40.9285 335.568 42.1368 336.336 43.44C342.703 41.8491 348.616 38.8103 353.616 34.56V44.016H358.08V34.316C362.64 38.492 369.456 41.852 375.744 43.484C376.536 42.1289 377.486 40.8733 378.576 39.744C372.432 38.544 365.856 35.952 361.536 32.784H377.468ZM411.504 10.172V0.0919991H406.804V10.172H391.68V14.732H406.56C405.84 23.372 402.72 33.552 390.24 40.704C391.546 41.7457 392.708 42.9563 393.696 44.304C407.328 36.24 410.596 24.624 411.312 14.736H426.336C425.52 30.436 424.512 37.008 422.88 38.544C422.589 38.8212 422.24 39.0297 421.858 39.1543C421.476 39.2788 421.07 39.3163 420.672 39.264C419.472 39.264 416.544 39.264 413.372 38.976C414.23 40.3778 414.771 41.9507 414.956 43.584C417.497 43.754 420.047 43.754 422.588 43.584C423.442 43.561 424.28 43.3509 425.044 42.9687C425.807 42.5866 426.478 42.0415 427.008 41.372C429.12 38.924 430.032 31.82 431.088 12.38C431.136 11.756 431.188 10.172 431.188 10.172H411.504ZM593.616 9.74H583.008V6.092H593.616V9.74ZM593.616 16.892H583.008V13.152H593.616V16.892ZM593.616 24.044H583.008V20.252H593.616V24.044ZM597.888 2.492H578.928V27.592H597.888V2.492ZM574.224 29.232C576.475 31.4188 578.607 33.7262 580.608 36.144L583.868 33.408C582.38 31.68 579.452 28.848 577.292 26.832L574.224 29.232ZM560.64 41.52C562.516 38.3021 563.953 34.8474 564.912 31.248L560.976 29.664C560.074 33.1628 558.598 36.4879 556.608 39.504L560.64 41.52ZM569.76 28.128V17.228C571.728 18.908 574.032 21.02 575.184 22.22L577.584 18.572C576.336 17.66 571.584 14.204 569.76 13.1V10.8H576.96V7.008H569.76V0.144001H565.536V7.008H557.236V10.8H564.82C562.804 15.36 559.444 19.968 556.084 22.368C557.181 23.3052 558.164 24.3686 559.012 25.536C561.672 23.0743 563.881 20.1666 565.54 16.944V28.172L569.76 28.128ZM575.328 39.072C572.592 39.072 572.112 38.88 572.112 37.584V30.484H567.696V37.632C567.696 41.856 569.184 43.056 574.944 43.056H584.304C589.004 43.056 590.256 41.568 590.88 35.232C589.451 34.9279 588.086 34.3756 586.848 33.6C586.56 38.4 586.224 39.072 583.968 39.072H575.328ZM590.64 30.772C592.676 33.9378 594.55 37.2047 596.256 40.56L600.384 38.448C599.136 36 596.496 31.92 594.528 28.948L590.64 30.772ZM621.024 0.191998C618.816 7.392 615.124 14.492 611.136 19.152C611.989 20.6611 612.727 22.2322 613.344 23.852C614.756 22.1922 616.04 20.4271 617.184 18.572V44.016H621.408V10.8C622.837 7.72286 624.087 4.56558 625.152 1.344L621.024 0.191998ZM630.384 12.576H637.968V17.232H630.384V12.576ZM641.616 6.288C640.955 7.41705 640.185 8.47819 639.316 9.456H630.668C631.58 8.4 632.444 7.344 633.26 6.288H641.616ZM650.116 17.232H642.048V12.572H650.112L650.116 17.232ZM652.852 21.6C651.078 23.3447 649.186 24.9646 647.188 26.448C646.351 24.4577 645.677 22.403 645.172 20.304H654.388V9.456H644.16C645.356 7.93244 646.447 6.32868 647.424 4.656L644.736 2.736L643.968 2.972H635.52C636 2.252 636.433 1.532 636.82 0.812L632.548 0.0439987C630.14 4.58381 626.703 8.49738 622.512 11.472C623.731 12.1367 624.834 12.996 625.776 14.016L626.304 13.584V20.304H634.704C631.188 22.3235 627.43 23.8881 623.52 24.96C624.437 25.9076 625.287 26.9181 626.064 27.984C628.948 26.952 631.741 25.6837 634.416 24.192C634.992 24.72 635.568 25.292 636.096 25.872C632.358 28.4404 628.245 30.4157 623.904 31.728C624.738 32.6033 625.449 33.5884 626.016 34.656C630.192 33.0059 634.156 30.8628 637.824 28.272C638.281 29.0258 638.682 29.8119 639.024 30.624C635.184 34.124 628.464 37.724 623.088 39.408C624.024 40.3891 624.831 41.486 625.488 42.672C630.653 40.5943 635.501 37.8003 639.888 34.372C640.128 36.772 639.552 38.692 638.496 39.508C638.148 39.8389 637.73 40.088 637.273 40.2375C636.817 40.3869 636.333 40.4329 635.856 40.372C634.944 40.372 633.556 40.324 632.112 40.18C632.73 41.3518 633.074 42.6482 633.12 43.972C634.42 44.072 635.712 44.072 636.72 44.072C638.455 44.1555 640.155 43.5682 641.468 42.432C645.268 39.36 645.268 28.944 637.44 22.372C638.448 21.7 639.408 21.028 640.32 20.308H641.376C643.536 29.86 647.328 37.924 653.712 42.1C654.486 40.7923 655.458 39.6117 656.592 38.6C653.154 36.4412 650.405 33.3431 648.672 29.672C651.237 28.0483 653.677 26.2353 655.972 24.248L652.852 21.6ZM689.668 10.172V0.0919991H684.968V10.172H669.848V14.732H684.728C684.008 23.372 680.888 33.548 668.408 40.7C669.714 41.7417 670.876 42.9523 671.864 44.3C685.496 36.236 688.764 24.62 689.48 14.732H704.504C703.688 30.432 702.68 37.004 701.048 38.54C700.757 38.8172 700.408 39.0257 700.026 39.1502C699.644 39.2748 699.238 39.3123 698.84 39.26C697.64 39.26 694.712 39.26 691.54 38.972C692.398 40.3738 692.939 41.9467 693.124 43.58C695.665 43.75 698.215 43.75 700.756 43.58C701.608 43.5563 702.444 43.3463 703.207 42.9649C703.969 42.5834 704.638 42.0397 705.168 41.372C707.28 38.924 708.192 31.82 709.248 12.38C709.296 11.756 709.348 10.172 709.348 10.172H689.668Z" fill="#333333"/>
<path d="M200.468 11.772L225.468 36.772" stroke="#AE6938" stroke-width="2"/>
<path d="M225.468 11.772L200.468 36.772" stroke="#AE6938" stroke-width="2"/>
<path d="M486.468 11.772L511.468 36.772" stroke="#AE6938" stroke-width="2"/>
<path d="M511.468 11.772L486.468 36.772" stroke="#AE6938" stroke-width="2"/>
<path d="M591.688 77.2718V66.0718H589.832V77.2718H591.688ZM602.04 70.4238V77.2718H603.832V66.0718H602.008L599.832 72.5838L597.668 66.0718H595.912V77.2718H597.64V70.4238L599.32 75.6398H600.36L602.04 70.4238ZM611.96 77.2718H613.848L611.736 66.0718H609.4L607.32 77.2718H609.112L609.512 74.7718H611.56L611.96 77.2718ZM609.752 73.2398L610.536 68.2638L611.32 73.2398H609.752ZM622.936 71.5118H619.992V73.0798H621.08V74.7438C621.08 75.5438 620.664 75.7678 620.056 75.7678C619.448 75.7678 619.032 75.5438 619.032 74.7438V68.5998C619.032 67.7998 619.448 67.5758 620.056 67.5758C620.664 67.5758 621.08 67.7998 621.08 68.5998V69.9118H622.936V68.3118C622.936 66.6478 621.816 65.9438 620.12 65.9438H619.992C618.292 65.9438 617.176 66.6438 617.176 68.3118V75.0318C617.176 76.7758 618.296 77.3998 619.992 77.3998H620.12C621.82 77.3998 622.936 76.7598 622.936 75.0318V71.5118ZM628.92 77.2718V66.0718H627.068V77.2718H628.92ZM634.84 77.2718V69.9918L637.288 77.2718H639.048V66.0718H637.348V72.9998L635 66.0718H633.144V77.2718H634.84ZM647.176 77.2718H649.068L646.952 66.0718H644.616L642.536 77.2718H644.328L644.728 74.7718H646.776L647.176 77.2718ZM644.968 73.2398L645.752 68.2638L646.536 73.2398H644.968ZM656.808 66.0718H651.208V67.7038H653.08V77.2718H654.936V67.7038H656.808V66.0718ZM662.248 77.2718V66.0718H660.392V77.2718H662.248ZM666.408 68.3118V75.0318C666.408 76.7318 667.528 77.3998 669.224 77.3998H669.352C671.052 77.3998 672.168 76.7278 672.168 75.0318V68.3118C672.168 66.6118 671.048 65.9438 669.352 65.9438H669.224C667.528 65.9438 666.408 66.5998 666.408 68.3118ZM668.268 74.7438V68.5998C668.268 67.7998 668.684 67.5758 669.292 67.5758C669.9 67.5758 670.316 67.7998 670.316 68.5998V74.7438C670.316 75.5438 669.9 75.7678 669.292 75.7678C668.684 75.7678 668.268 75.5438 668.268 74.7438ZM677.96 77.2718V69.9918L680.408 77.2718H682.168V66.0718H680.468V72.9998L678.12 66.0718H676.268V77.2718H677.96Z" fill="black"/>
<path d="M323.668 66.0718H320.768V77.2718H322.624V72.9358H323.668C325.368 72.9358 326.484 72.2638 326.484 70.5678V68.4398C326.48 66.7438 325.36 66.0718 323.668 66.0718ZM324.628 70.2798C324.628 71.0798 324.212 71.3038 323.604 71.3038H322.624V67.7038H323.6C324.208 67.7038 324.624 67.9278 324.624 68.7278L324.628 70.2798ZM336.32 77.2718L334.72 72.5198C335.115 72.3453 335.446 72.0502 335.664 71.6767C335.883 71.3033 335.978 70.8704 335.936 70.4398V68.4398C335.936 66.7398 334.816 66.0718 333.12 66.0718H330.22V77.2718H332.076V72.8078H333.004L334.432 77.2718H336.32ZM332.08 67.7038H333.056C333.664 67.7038 334.08 67.9278 334.08 68.7278V70.1838C334.08 70.9838 333.664 71.2078 333.056 71.2078H332.08V67.7038ZM339.84 68.3118V75.0318C339.84 76.7318 340.96 77.3998 342.656 77.3998H342.784C344.484 77.3998 345.6 76.7278 345.6 75.0318V68.3118C345.6 66.6118 344.48 65.9438 342.784 65.9438H342.656C340.96 65.9438 339.84 66.5998 339.84 68.3118ZM341.696 74.7438V68.5998C341.696 67.7998 342.112 67.5758 342.72 67.5758C343.328 67.5758 343.744 67.7998 343.744 68.5998V74.7438C343.744 75.5438 343.328 75.7678 342.72 75.7678C342.112 75.7678 341.696 75.5438 341.696 74.7438ZM352.596 66.0718H349.696V77.2718H351.552V72.9358H352.592C354.292 72.9358 355.408 72.2638 355.408 70.5678V68.4398C355.408 66.7438 354.288 66.0718 352.592 66.0718H352.596ZM353.556 70.2798C353.556 71.0798 353.14 71.3038 352.532 71.3038H351.556V67.7038H352.532C353.14 67.7038 353.556 67.9278 353.556 68.7278V70.2798ZM359.088 68.3118V75.0318C359.088 76.7318 360.208 77.3998 361.904 77.3998H362.032C363.732 77.3998 364.848 76.7278 364.848 75.0318V68.3118C364.848 66.6118 363.728 65.9438 362.032 65.9438H361.904C360.208 65.9438 359.088 66.5998 359.088 68.3118ZM360.944 74.7438V68.5998C360.944 67.7998 361.36 67.5758 361.968 67.5758C362.576 67.5758 362.992 67.7998 362.992 68.5998V74.7438C362.992 75.5438 362.576 75.7678 361.968 75.7678C361.36 75.7678 360.944 75.5438 360.944 74.7438ZM374.256 70.0718V68.2478C374.256 66.5838 373.04 65.9478 371.504 65.9478H371.468C369.932 65.9478 368.716 66.5878 368.716 68.2478V69.7198C368.716 70.8878 369.34 71.3998 370.428 72.0198L371.728 72.7558C371.962 72.843 372.162 73.005 372.296 73.2167C372.429 73.4285 372.49 73.6784 372.468 73.9278V74.8078C372.484 74.9393 372.471 75.0728 372.429 75.1985C372.387 75.3242 372.318 75.4389 372.226 75.5341C372.133 75.6293 372.021 75.7026 371.897 75.7486C371.773 75.7946 371.64 75.8121 371.508 75.7998C371.376 75.8121 371.243 75.7946 371.118 75.7486C370.994 75.7026 370.882 75.6293 370.79 75.5341C370.698 75.4389 370.628 75.3242 370.586 75.1985C370.544 75.0728 370.531 74.9393 370.548 74.8078V73.1078H368.72V75.0598C368.72 76.8038 369.792 77.3958 371.488 77.3958H371.52C373.22 77.3958 374.288 76.7878 374.288 75.0598V73.4478C374.288 72.2478 373.648 71.7478 372.576 71.1478L371.268 70.4078C371.041 70.3214 370.848 70.1643 370.718 69.9597C370.587 69.755 370.526 69.5139 370.544 69.2718V68.5038C370.526 68.375 370.537 68.2437 370.578 68.1201C370.619 67.9966 370.688 67.8841 370.779 67.7913C370.87 67.6985 370.982 67.6279 371.105 67.585C371.227 67.5421 371.358 67.528 371.488 67.5438C371.617 67.528 371.748 67.5421 371.871 67.585C371.993 67.6279 372.105 67.6985 372.196 67.7913C372.287 67.8841 372.356 67.9966 372.397 68.1201C372.438 68.2437 372.45 68.375 372.432 68.5038V70.0718H374.256ZM382.068 77.2718H383.956L381.84 66.0718H379.504L377.424 77.2718H379.216L379.616 74.7718H381.668L382.068 77.2718ZM379.856 73.2398L380.64 68.2638L381.424 73.2398H379.856ZM392.156 75.6078H389.296V66.0718H387.44V77.2718H392.16L392.156 75.6078Z" fill="black"/>
<path d="M44.7279 66.0718H39.1279V67.7038H40.9999V77.2718H42.8559V67.7038H44.7279V66.0718ZM53.2079 77.2718V75.6398H50.1079V72.4078H52.6679V70.7718H50.1079V67.7038H53.1639V66.0718H48.2479V77.2718H53.2079ZM62.6799 72.7118H60.8239V74.7438C60.8239 75.5278 60.4399 75.7678 59.8479 75.7678C59.2559 75.7678 58.8719 75.5278 58.8719 74.7438V68.5998C58.8719 67.8158 59.2559 67.5758 59.8479 67.5758C60.4399 67.5758 60.8239 67.8158 60.8239 68.5998V70.3598H62.6799V68.3118C62.6799 66.6478 61.5599 65.9438 59.8639 65.9438H59.8319C58.1319 65.9438 57.0159 66.6438 57.0159 68.3118V75.0318C57.0159 76.7758 58.1359 77.3998 59.8319 77.3998H59.8679C61.5679 77.3998 62.6839 76.7598 62.6839 75.0318L62.6799 72.7118ZM66.7119 66.0718V77.2718H68.5679V72.4078H70.6959V77.2718H72.5519V66.0718H70.6959V70.7438H68.5679V66.0718H66.7119ZM78.4079 77.2718V69.9918L80.8559 77.2718H82.6159V66.0718H80.9159V72.9998L78.5679 66.0718H76.7119V77.2718H78.4079ZM88.6959 77.2718V66.0718H86.8399V77.2718H88.6959ZM95.7959 65.9438H95.6679C93.9679 65.9438 92.8519 66.5998 92.8519 68.3118V75.0318C92.8292 75.3213 92.8653 75.6123 92.9579 75.8875C93.0506 76.1626 93.198 76.4162 93.3911 76.6329C93.5843 76.8496 93.8194 77.025 94.0821 77.1486C94.3448 77.2721 94.6298 77.3413 94.9199 77.3518V78.8718H96.6199V77.3358C96.904 77.3209 97.1821 77.249 97.4377 77.1244C97.6934 76.9997 97.9213 76.8248 98.1079 76.6102C98.2946 76.3956 98.4361 76.1456 98.524 75.8751C98.612 75.6046 98.6446 75.3192 98.6199 75.0358V68.3118C98.6159 66.6158 97.4959 65.9438 95.7999 65.9438H95.7959ZM96.7559 74.7438C96.7559 75.5438 96.3399 75.7678 95.7319 75.7678C95.1239 75.7678 94.7079 75.5438 94.7079 74.7438V68.5998C94.7079 67.7998 95.1239 67.5758 95.7319 67.5758C96.3399 67.5758 96.7559 67.7998 96.7559 68.5998V74.7438ZM108.312 66.0718H106.456V74.7438C106.456 75.5438 106.104 75.7678 105.496 75.7678C104.888 75.7678 104.536 75.5438 104.536 74.7438V66.0718H102.68V75.0318C102.68 76.7718 103.768 77.3998 105.468 77.3998H105.532C107.232 77.3998 108.316 76.7598 108.316 75.0318L108.312 66.0718ZM117.4 77.2718V75.6398H114.3V72.4078H116.86V70.7718H114.3V67.7038H117.356V66.0718H112.44V77.2718H117.4Z" fill="black"/>
</g>
<defs>
<clipPath id="clip0_274_897">
<rect width="709.344" height="78.872" fill="white"/>
</clipPath>
</defs>
</svg>
