<svg width="160" height="300" viewBox="0 0 160 300" fill="none" xmlns="http://www.w3.org/2000/svg">
<g clip-path="url(#clip0_278_922)">
<path d="M119.667 300L119.667 0" stroke="#AE6938" stroke-width="2"/>
<path d="M0 178.333H160" stroke="#AE6938" stroke-width="2"/>
<path d="M119.5 173.5C120.489 173.5 121.456 173.793 122.278 174.343C123.1 174.892 123.741 175.673 124.119 176.587C124.498 177.5 124.597 178.506 124.404 179.475C124.211 180.445 123.735 181.336 123.036 182.036C122.336 182.735 121.445 183.211 120.475 183.404C119.506 183.597 118.5 183.498 117.587 183.119C116.673 182.741 115.892 182.1 115.343 181.278C114.793 180.456 114.5 179.489 114.5 178.5C114.5 177.174 115.027 175.902 115.964 174.964C116.902 174.027 118.174 173.5 119.5 173.5Z" fill="#AE6938"/>
</g>
<defs>
<clipPath id="clip0_278_922">
<rect width="160" height="300" fill="white"/>
</clipPath>
</defs>
</svg>
