<svg width="9" height="153" viewBox="0 0 9 153" fill="none" xmlns="http://www.w3.org/2000/svg">
<g clip-path="url(#clip0_273_891)">
<path d="M5.98047 51.78V151.78" stroke="#AE6938" stroke-dasharray="3 5"/>
<path d="M8.12 32.9699C8.12 31.2599 7.09 30.2499 5.88 30.2499C5.42724 30.2405 4.98418 30.3818 4.62038 30.6514C4.25658 30.9211 3.99264 31.304 3.87 31.7399L3.46 32.7099C3.21 33.3399 3.02 33.8699 2.49 33.8699C2 33.8699 1.71 33.4499 1.71 32.7999C1.7134 32.2194 1.93056 31.6605 2.32 31.2299L1.39 30.4799C0.779002 31.0972 0.437416 31.9314 0.44 32.7999C0.40526 33.1098 0.43368 33.4235 0.523543 33.7221C0.613406 34.0208 0.762849 34.2981 0.962849 34.5373C1.16285 34.7766 1.40926 34.9728 1.6872 35.1142C1.96514 35.2556 2.26886 35.3392 2.58 35.3599C3.02664 35.3484 3.45852 35.1977 3.81531 34.9287C4.17209 34.6598 4.43595 34.2861 4.57 33.8599L4.99 32.8699C5.27 32.2099 5.44 31.7599 5.99 31.7599C6.51 31.7599 6.84 32.1699 6.84 32.9399C6.8038 33.6453 6.51236 34.3135 6.02 34.8199L7.04 35.6699C7.73085 34.9404 8.11715 33.9746 8.12 32.9699ZM8.12 25.0799C8.1222 24.4077 7.8806 23.7576 7.44 23.2499L6.47 23.8299C6.74237 24.1298 6.90153 24.5153 6.92 24.9199C6.92 25.7299 6.24 26.3099 5.19 26.3099C4.14 26.3099 3.44 25.7299 3.44 24.8799C3.45011 24.5568 3.58233 24.2495 3.81 24.0199L2.86 23.3199C2.46025 23.7687 2.23956 24.3489 2.24 24.9499C2.23117 25.3356 2.30214 25.719 2.44846 26.0759C2.59478 26.4329 2.81328 26.7558 3.09027 27.0243C3.36726 27.2928 3.69675 27.5012 4.05808 27.6364C4.4194 27.7716 4.80477 27.8307 5.19 27.8099C5.56676 27.846 5.94688 27.8017 6.30526 27.68C6.66364 27.5583 6.99213 27.3619 7.26903 27.1039C7.54594 26.8459 7.76497 26.5321 7.91166 26.1832C8.05835 25.8343 8.12936 25.4583 8.12 25.0799ZM7.98 20.5899V19.1299H4.64C3.83 18.8099 3.54 18.2799 3.54 17.8399C3.53742 17.6429 3.56784 17.4469 3.63 17.2599L2.36 16.9999C2.27334 17.2088 2.23242 17.4339 2.24 17.6599C2.27117 18.0011 2.39215 18.328 2.59063 18.6073C2.78911 18.8866 3.05802 19.1083 3.37 19.2499V19.2899L2.38 19.3899V20.5899H7.98ZM8.12 12.4099C8.11569 12.0373 8.0351 11.6695 7.8832 11.3292C7.7313 10.9889 7.51131 10.6833 7.23679 10.4312C6.96227 10.1792 6.63904 9.98606 6.28702 9.86372C5.935 9.74139 5.56166 9.69245 5.19 9.71992C4.81693 9.69047 4.44179 9.73789 4.08779 9.85926C3.73378 9.98062 3.40845 10.1733 3.13193 10.4255C2.8554 10.6776 2.63357 10.9839 2.48015 11.3252C2.32673 11.6665 2.245 12.0357 2.24 12.4099C2.245 12.7841 2.32673 13.1533 2.48015 13.4946C2.63357 13.836 2.8554 14.1422 3.13193 14.3943C3.40845 14.6465 3.73378 14.8392 4.08779 14.9606C4.44179 15.082 4.81693 15.1294 5.19 15.0999C5.56166 15.1274 5.935 15.0785 6.28702 14.9561C6.63904 14.8338 6.96227 14.6407 7.23679 14.3886C7.51131 14.1366 7.7313 13.831 7.8832 13.4907C8.0351 13.1504 8.11569 12.7826 8.12 12.4099ZM6.92 12.4099C6.92 13.1699 6.24 13.5999 5.19 13.5999C4.14 13.5999 3.44 13.1699 3.44 12.4099C3.44 11.6499 4.13 11.2199 5.19 11.2199C6.25 11.2199 6.92 11.6499 6.92 12.4099ZM8.12 5.50992C8.12637 5.25055 8.08222 4.99243 7.99 4.74992L6.9 4.92992C6.91476 4.99553 6.92148 5.06269 6.92 5.12992C6.92 5.26992 6.81 5.42992 6.48 5.42992H0L0 6.88992H6.41C7.45 6.88992 8.12 6.52992 8.12 5.50992ZM8.12 0.759922C8.12637 0.500555 8.08222 0.242427 7.99 -7.62939e-05L6.9 0.179924C6.91476 0.245531 6.92148 0.312689 6.92 0.379921C6.92 0.519921 6.81 0.679924 6.48 0.679924H0L0 2.13992H6.41C7.45 2.13992 8.12 1.77992 8.12 0.759922Z" fill="#AE6938"/>
<path d="M6.48047 152.78L1.98047 145.28H6.48047V152.78Z" fill="#AE6938"/>
</g>
<defs>
<clipPath id="clip0_273_891">
<rect width="8.12" height="152.78" fill="white"/>
</clipPath>
</defs>
</svg>
