<svg width="34" height="32" viewBox="0 0 34 32" fill="none" xmlns="http://www.w3.org/2000/svg">
<g clip-path="url(#clip0_295_934)">
<mask id="mask0_295_934" style="mask-type:luminance" maskUnits="userSpaceOnUse" x="0" y="0" width="34" height="32">
<path d="M34 0H0V32H34V0Z" fill="white"/>
</mask>
<g mask="url(#mask0_295_934)">
<path d="M29.6162 21.5487L31.0843 21.5478H31.7611C31.8791 21.5478 31.9787 21.4481 31.9787 21.3302C31.9787 21.2127 31.8791 21.1135 31.7611 21.1135H29.7611V19.1135C29.7611 15.6989 28.4315 12.4886 26.0171 10.0742C23.6028 7.65976 20.3929 6.33008 16.9786 6.33008C13.564 6.33008 10.3538 7.65977 7.93934 10.0742C5.52491 12.4886 4.19522 15.6988 4.19522 19.1135V21.1135H2.19522C2.07776 21.1135 1.97852 21.2127 1.97852 21.3302C1.97852 21.4481 2.07776 21.5478 2.19788 21.5478L2.87231 21.5487H29.6162ZM31.084 23.5487H2.87231L2.19522 23.5478C0.972926 23.5478 -0.0214844 22.553 -0.0214844 21.3302C-0.0214844 20.1079 0.972926 19.1135 2.19522 19.1135C2.19522 15.1646 3.7333 11.4518 6.52512 8.65998C9.3173 5.8678 13.0298 4.33008 16.9786 4.33008C20.9271 4.33008 24.6393 5.8678 27.4313 8.65998C30.2234 11.4522 31.7611 15.1647 31.7611 19.1135C32.9835 19.1135 33.9787 20.1083 33.9787 21.3302C33.9787 22.553 32.9839 23.5478 31.7611 23.5478L31.084 23.5487Z" fill="#333333"/>
<path d="M3.67383 17.2656H9.58683" stroke="#333333" stroke-width="2" stroke-linecap="round"/>
<path d="M24.3691 17.2656H30.2821" stroke="#333333" stroke-width="2" stroke-linecap="round"/>
<path d="M14.7607 17.0107H19.4267" stroke="#333333" stroke-width="2" stroke-linecap="round"/>
<path d="M17.0938 14.6777V19.3437" stroke="#333333" stroke-width="2" stroke-linecap="round"/>
</g>
</g>
<defs>
<clipPath id="clip0_295_934">
<rect width="34" height="32" fill="white"/>
</clipPath>
</defs>
</svg>
