<svg width="140" height="140" viewBox="0 0 140 140" fill="none" xmlns="http://www.w3.org/2000/svg">
<g clip-path="url(#clip0_286_916)">
<path d="M70 140C108.66 140 140 108.66 140 70C140 31.3401 108.66 0 70 0C31.3401 0 0 31.3401 0 70C0 108.66 31.3401 140 70 140Z" fill="#C08D5E"/>
<path d="M30.3209 60.5117C31.6209 60.6117 32.9929 60.6877 34.6569 60.6877C36.1569 60.6877 38.1289 60.5757 39.2329 60.4957V58.3677C38.0169 58.4957 36.2089 58.5917 34.6409 58.5917C33.1986 58.6028 31.7566 58.5387 30.3209 58.3997V60.5117ZM29.5849 64.9277C29.3919 65.6758 29.2845 66.4434 29.2649 67.2157C29.2649 69.3917 31.0889 70.6077 34.7209 70.6077C36.569 70.6371 38.4144 70.4545 40.2209 70.0637L40.2049 67.8397C38.3822 68.2792 36.5117 68.4888 34.6369 68.4637C32.3489 68.4637 31.3889 67.7277 31.3889 66.7197C31.4132 66.1772 31.5045 65.6397 31.6609 65.1197L29.5849 64.9277ZM53.7289 57.9677L51.4729 57.0557C51.1849 57.7277 50.8969 58.2397 50.6889 58.6717C49.8569 60.1717 46.5129 66.8317 45.3449 69.9997L47.5849 70.7517C47.9132 69.5551 48.3139 68.3796 48.7849 67.2317C49.3449 65.9317 50.2249 64.8477 51.3129 64.8477C51.4334 64.837 51.5548 64.852 51.669 64.8918C51.7832 64.9316 51.8877 64.9952 51.9754 65.0784C52.0632 65.1616 52.1322 65.2625 52.178 65.3745C52.2238 65.4864 52.2452 65.6068 52.2409 65.7277C52.2889 66.3677 52.2729 67.6637 52.3409 68.5117C52.3589 68.832 52.4421 69.1453 52.5854 69.4324C52.7288 69.7194 52.9293 69.9741 53.1746 70.1809C53.42 70.3876 53.705 70.5421 54.0122 70.6347C54.3193 70.7274 54.6422 70.7563 54.9609 70.7197C57.4089 70.7197 58.8809 68.9277 59.6969 66.1917L57.9849 64.7997C57.5369 66.7677 56.6729 68.5437 55.3129 68.5437C55.1885 68.5603 55.062 68.5505 54.9416 68.515C54.8212 68.4795 54.7097 68.419 54.6142 68.3375C54.5187 68.256 54.4415 68.1553 54.3875 68.0419C54.3335 67.9286 54.304 67.8052 54.3009 67.6797C54.2009 67.0237 54.2529 65.7437 54.2209 65.0397C54.2447 64.7701 54.211 64.4985 54.1221 64.2429C54.0331 63.9873 53.8909 63.7535 53.7049 63.5569C53.5189 63.3603 53.2933 63.2054 53.043 63.1025C52.7927 62.9995 52.5234 62.9509 52.2529 62.9597C51.6185 62.9579 50.9949 63.1234 50.4449 63.4397C51.2289 62.0477 52.4289 59.8397 53.2129 58.7037C53.3929 58.4477 53.5689 58.1597 53.7289 57.9677ZM77.1009 61.2637C75.8588 60.4485 74.5548 59.7316 73.2009 59.1197L72.1769 60.6877C73.5218 61.3043 74.7981 62.0604 75.9849 62.9437L77.1009 61.2637ZM71.1369 58.8317C70.4393 59.0446 69.7284 59.2116 69.0089 59.3317C69.2329 58.4837 69.4249 57.6837 69.5529 57.1717L67.3609 56.9477C67.3055 57.8439 67.1608 58.7323 66.9289 59.5997C66.4489 59.6317 65.9689 59.6477 65.5049 59.6477C64.7995 59.6474 64.0945 59.61 63.3929 59.5357L63.5369 61.3917C64.2249 61.4237 64.8649 61.4397 65.5209 61.4397C65.7929 61.4397 66.0649 61.4397 66.3369 61.4237C65.514 63.4269 64.4256 65.3104 63.1009 67.0237L65.0409 67.9997C66.4613 65.8952 67.6015 63.6147 68.4329 61.2157C69.3604 61.09 70.2794 60.9083 71.1849 60.6717L71.1369 58.8317ZM71.5209 67.6477C71.5209 68.4997 71.1689 69.1197 70.1009 69.1197C69.2369 69.1197 68.7409 68.7197 68.7409 68.1277C68.7409 67.5677 69.3329 67.1837 70.2409 67.1837C70.6723 67.1876 71.1018 67.2413 71.5209 67.3437V67.6477ZM71.2649 62.0997C71.3129 63.0597 71.3929 64.4517 71.4409 65.6357C71.1009 65.5997 70.7369 65.5677 70.3689 65.5677C68.1609 65.5677 66.8689 66.7677 66.8689 68.3197C66.8649 70.0637 68.4169 70.9437 70.3849 70.9437C72.6409 70.9437 73.4409 69.7917 73.4409 68.3197V68.1757C74.2081 68.6652 74.9261 69.2278 75.5849 69.8557L76.6409 68.1597C75.6817 67.2866 74.5698 66.5978 73.3609 66.1277C73.3129 65.3437 73.2809 64.5757 73.2609 64.1277C73.2449 63.4277 73.2129 62.7677 73.2609 62.0957L71.2649 62.0997ZM94.8169 60.8197V58.9957H88.5009V56.3877H86.5289V58.9957H80.4009V60.8197H84.9769C84.8009 64.2397 84.4329 67.8877 80.1129 69.8877C80.651 70.3431 81.1057 70.8885 81.4569 71.4997C82.7905 70.8499 83.9511 69.8935 84.8438 68.7088C85.7366 67.524 86.336 66.1447 86.5929 64.6837H90.9929C90.7689 67.5957 90.4809 68.9837 90.0649 69.3397C89.9572 69.4237 89.8338 69.4854 89.7019 69.5211C89.57 69.5568 89.4323 69.5659 89.2969 69.5477C88.8329 69.5477 87.7129 69.5477 86.6089 69.4357C86.972 70.0007 87.2018 70.6408 87.2809 71.3077C88.192 71.3647 89.1058 71.3647 90.0169 71.3077C90.3397 71.3102 90.6596 71.2466 90.9568 71.1207C91.254 70.9948 91.5222 70.8093 91.7449 70.5757C92.3849 69.8757 92.7209 68.0757 93.0089 63.7277C93.0451 63.4517 93.0665 63.174 93.0729 62.8957H86.9009C86.9809 62.2077 87.0289 61.5037 87.0769 60.8157L94.8169 60.8197ZM107.169 67.6997C107.153 66.9797 107.121 65.8117 107.105 64.9317C108.081 64.4837 108.977 64.1317 109.681 63.8597C110.296 63.5983 110.927 63.3739 111.569 63.1877L110.769 61.3477C110.193 61.6197 109.633 61.8917 109.025 62.1637C108.369 62.4517 107.697 62.7237 106.881 63.1077C106.695 62.7128 106.393 62.3837 106.016 62.1637C105.639 61.9438 105.204 61.8433 104.769 61.8757C104.157 61.8709 103.549 61.9794 102.977 62.1957C103.331 61.6926 103.636 61.1568 103.889 60.5957C105.617 60.5437 107.342 60.4048 109.057 60.1797L109.073 58.3237C107.591 58.5702 106.094 58.7252 104.593 58.7877C104.785 58.1477 104.893 57.6037 104.977 57.2197L102.901 57.0397C102.857 57.6519 102.75 58.2578 102.581 58.8477H101.813C100.882 58.8528 99.9518 58.794 99.0289 58.6717V60.5277C99.8929 60.6077 101.061 60.6397 101.701 60.6397H101.893C101.002 62.2898 99.8188 63.7644 98.4009 64.9917L100.101 66.2557C100.559 65.6472 101.05 65.065 101.573 64.5117C102.244 63.866 103.123 63.4803 104.053 63.4237C104.268 63.4109 104.482 63.4544 104.675 63.5498C104.868 63.6452 105.033 63.7892 105.153 63.9677C103.345 64.8957 101.425 66.1757 101.425 68.1917C101.425 70.2397 103.301 70.8317 105.777 70.8317C107.274 70.8229 108.769 70.7375 110.257 70.5757L110.321 68.5117C108.839 68.8063 107.332 68.9617 105.821 68.9757C104.269 68.9757 103.521 68.7357 103.521 67.8557C103.521 67.0717 104.161 66.4477 105.329 65.8077C105.313 66.4957 105.297 67.2317 105.265 67.6957L107.169 67.6997ZM23.7609 86.2317C21.8609 87.3317 19.7929 88.4877 18.4609 89.1437L19.6449 90.8877C21.0369 90.0877 22.8129 88.9997 24.3969 87.9757L23.7609 86.2317ZM23.5369 85.0157C22.8226 83.9826 21.9829 83.042 21.0369 82.2157L19.5809 83.2397C20.495 84.106 21.3008 85.0798 21.9809 86.1397L23.5369 85.0157ZM30.9289 82.0077C30.1874 83.0571 29.3462 84.0323 28.4169 84.9197C27.8162 83.9555 27.3175 82.9313 26.9289 81.8637V81.6997H33.1009V79.8637H31.3249L32.0609 79.0317C31.1188 78.3922 30.1231 77.8354 29.0849 77.3677L27.9849 78.5677C28.7455 78.9579 29.4827 79.392 30.1929 79.8677H26.9289V77.4677H24.9929V79.8677H18.9609V81.6997H24.9929V90.0397C24.9929 90.3277 24.8809 90.4237 24.5769 90.4237C24.2569 90.4237 23.2489 90.4397 22.2769 90.3917C22.5861 91.0252 22.8068 91.6981 22.9329 92.3917C23.9885 92.4904 25.0528 92.3594 26.0529 92.0077C26.7249 91.7077 26.9329 91.1757 26.9329 90.0557V85.7677C28.1054 88.0879 29.9347 90.0119 32.1929 91.2997C32.5775 90.6679 33.0518 90.0952 33.6009 89.5997C31.9867 88.8453 30.5685 87.7283 29.4569 86.3357C30.5707 85.3444 31.6233 84.2865 32.6089 83.1677L30.9289 82.0077ZM39.4729 88.7077C38.8969 88.7077 38.5729 88.2077 38.5729 87.4437C38.6091 86.3499 39.0153 85.3008 39.7249 84.4677C40.1161 85.5263 40.6091 86.5444 41.1969 87.5077C41.0097 87.8178 40.7596 88.0851 40.4626 88.2925C40.1657 88.4999 39.8285 88.6427 39.4729 88.7117V88.7077ZM43.8089 82.3557C43.4512 83.5308 42.9796 84.6682 42.4009 85.7517C41.9556 84.9483 41.5809 84.1079 41.2809 83.2397C42.0492 82.7651 42.9121 82.4648 43.8089 82.3597V82.3557ZM46.3849 80.0997C46.4849 79.6997 46.6249 78.9317 46.7529 78.4997L44.5609 78.2997C44.5677 78.802 44.5303 79.304 44.4489 79.7997C44.4009 80.0397 44.3489 80.2997 44.2889 80.5677C43.0382 80.6068 41.8127 80.9296 40.7049 81.5117C40.5929 81.1757 40.4969 80.8397 40.4169 80.5357C40.2889 80.0717 40.1609 79.5437 40.0649 79.0357L37.9849 79.6757C38.2397 80.208 38.4536 80.759 38.6249 81.3237C38.7529 81.7557 38.8969 82.1877 39.0409 82.6037C38.3296 83.2335 37.7549 84.0025 37.3524 84.8632C36.9499 85.7239 36.7282 86.658 36.7009 87.6077C36.7009 89.6557 37.9169 90.7757 39.2289 90.7757C39.8426 90.7419 40.441 90.5718 40.9807 90.2777C41.5204 89.9836 41.9878 89.573 42.3489 89.0757C42.5089 89.2837 42.7009 89.4917 42.8929 89.6997L44.4769 88.4357C44.1889 88.1477 43.9009 87.8277 43.6129 87.4917C44.5637 85.9222 45.2856 84.2251 45.7569 82.4517C46.5228 82.6444 47.1975 83.0982 47.6648 83.7349C48.1321 84.3716 48.3627 85.1513 48.3169 85.9397C48.3169 87.9237 46.9569 89.6997 43.4689 90.0037L44.6849 91.8277C47.9969 91.3277 50.3969 89.4117 50.3969 86.0517C50.4518 84.8119 50.0633 83.593 49.3009 82.6137C48.5386 81.6344 47.4523 80.9587 46.2369 80.7077L46.3849 80.0997ZM54.4169 80.0197L54.6089 82.1957C56.4489 81.7957 59.7929 81.4437 61.1529 81.2957C60.4273 81.8861 59.8415 82.6299 59.4376 83.4737C59.0337 84.3175 58.8217 85.2402 58.8169 86.1757C58.8169 89.5997 61.9529 91.3917 65.2809 91.6157L66.0169 89.4237C63.3449 89.2797 60.8969 88.3517 60.8969 85.7437C60.9326 84.7521 61.2726 83.7956 61.8709 83.0041C62.4692 82.2126 63.2967 81.6245 64.2409 81.3197C65.2522 81.1547 66.2767 81.0851 67.3009 81.1117L67.2809 79.0637C66.1809 79.1117 64.4329 79.2077 62.8009 79.3357C59.9009 79.5917 57.2809 79.8157 55.9689 79.9437C55.6489 79.9757 55.0409 80.0077 54.4169 80.0237V80.0197ZM74.9929 79.6077L72.5609 79.5757C72.6449 80.1047 72.6823 80.6401 72.6729 81.1757C72.6729 82.1517 72.7049 83.9917 72.8489 85.4477C73.2969 89.7037 74.8169 91.2717 76.5489 91.2717C77.8289 91.2717 78.8209 90.2957 79.8769 87.5437L78.2769 85.6237C77.9769 86.8717 77.3489 88.7237 76.5969 88.7237C75.6049 88.7237 75.1249 87.1717 74.8969 84.8837C74.7969 83.7477 74.7849 82.5477 74.7969 81.5237C74.8131 80.881 74.8786 80.2404 74.9929 79.6077ZM82.9129 79.9437L80.8969 80.6157C82.6249 82.5677 83.4729 86.2957 83.7129 88.8397L85.8129 88.0397C85.5444 85.1397 84.5468 82.3546 82.9129 79.9437ZM96.0329 88.9037C96.0329 89.8157 95.4889 90.0717 94.6409 90.0717C93.5529 90.0717 92.9929 89.6877 92.9929 89.0957C92.9929 88.5517 93.6009 88.1197 94.7209 88.1197C95.1565 88.1236 95.5911 88.1611 96.0209 88.2317C96.0329 88.4997 96.0329 88.7277 96.0329 88.8997V88.9037ZM102.369 89.3037C101.074 88.2053 99.5646 87.388 97.9369 86.9037C97.8889 86.2957 97.8569 85.6557 97.8249 85.0637C99.3609 85.0157 100.593 84.9037 102.017 84.7437V82.8717C100.717 83.0317 99.3929 83.1717 97.7929 83.2397L97.8089 81.5917C99.3289 81.5117 100.609 81.3837 101.649 81.2917L101.601 79.4637C100.351 79.6636 99.0899 79.7918 97.8249 79.8477L97.8409 79.2237C97.8584 78.8486 97.8958 78.4748 97.9529 78.1037H95.7929C95.8508 78.4634 95.8776 78.8274 95.8729 79.1917V79.9117H95.0889C93.936 79.9064 92.7854 79.8061 91.6489 79.6117L91.6649 81.4197C92.8051 81.5746 93.9543 81.6548 95.1049 81.6597H95.8569V83.2997H95.1009C93.8213 83.2889 92.5438 83.1927 91.2769 83.0117L91.2609 84.8837C92.3169 85.0117 94.1409 85.0917 95.0689 85.0917H95.8849C95.9009 85.5557 95.9169 86.0517 95.9489 86.5317C95.6246 86.4994 95.2989 86.4833 94.9729 86.4837C92.5249 86.4837 91.0529 87.6037 91.0529 89.2037C91.0529 90.8837 92.3969 91.8437 94.9249 91.8437C97.0249 91.8437 98.0449 90.8037 98.0449 89.4437C98.0449 89.2837 98.0449 89.0917 98.0289 88.8837C99.2074 89.436 100.288 90.1763 101.229 91.0757L102.369 89.3037ZM112.449 85.7357C112.44 85.5721 112.465 85.4085 112.522 85.2551C112.58 85.1017 112.669 84.9619 112.783 84.8446C112.897 84.7273 113.035 84.635 113.186 84.5735C113.338 84.5121 113.501 84.4829 113.665 84.4877C113.873 84.476 114.08 84.5222 114.264 84.621C114.447 84.7198 114.6 84.8675 114.705 85.0477C114.913 86.4237 114.321 86.9197 113.665 86.9197C113.507 86.925 113.349 86.8982 113.201 86.8409C113.053 86.7837 112.918 86.6972 112.805 86.5866C112.691 86.4761 112.601 86.3437 112.54 86.1975C112.479 86.0513 112.448 85.8942 112.449 85.7357ZM120.901 79.9917C120.069 79.9757 117.909 79.9917 116.309 79.9917C116.309 79.7997 116.325 79.6397 116.325 79.5117C116.341 79.2557 116.389 78.4117 116.437 78.1517H114.137C114.215 78.6068 114.263 79.0664 114.281 79.5277C114.296 79.6872 114.301 79.8475 114.297 80.0077C112.169 80.0397 109.289 80.1197 107.481 80.1197L107.529 82.0397C109.481 81.9277 111.929 81.8317 114.329 81.7997L114.345 82.8557C114.139 82.8226 113.93 82.8065 113.721 82.8077C113.316 82.7827 112.91 82.8405 112.528 82.9777C112.146 83.1149 111.796 83.3286 111.5 83.6056C111.203 83.8827 110.966 84.2173 110.803 84.5891C110.641 84.9608 110.555 85.3619 110.553 85.7677C110.537 86.139 110.595 86.5098 110.724 86.8584C110.853 87.207 111.05 87.5262 111.304 87.7975C111.559 88.0687 111.864 88.2865 112.204 88.438C112.543 88.5895 112.909 88.6717 113.281 88.6797C113.523 88.6786 113.764 88.6518 114.001 88.5997C112.921 89.5781 111.572 90.2082 110.129 90.4077L111.809 92.1077C115.681 91.0197 116.897 88.3957 116.897 86.3317C116.921 85.5585 116.715 84.7956 116.305 84.1397C116.305 83.4517 116.305 82.5877 116.289 81.7877C118.433 81.7877 119.921 81.8197 120.881 81.8677L120.901 79.9917Z" fill="white"/>
<path d="M48.5812 41.1991C49.5222 41.2021 50.4325 40.8639 51.1432 40.2471L50.3312 38.8891C49.9114 39.2704 49.3717 39.4932 48.8052 39.5191C47.6712 39.5191 46.8592 38.5671 46.8592 37.0971C46.8592 35.6271 47.6712 34.6471 48.8592 34.6471C49.3102 34.6623 49.7388 34.8474 50.0592 35.1651L51.0392 33.8351C50.4109 33.2754 49.5986 32.9665 48.7572 32.9671C48.2173 32.9544 47.6807 33.0536 47.181 33.2583C46.6813 33.4631 46.2294 33.7691 45.8537 34.157C45.478 34.5449 45.1866 35.0064 44.9979 35.5124C44.8092 36.0183 44.7273 36.5579 44.7572 37.0971C44.7068 37.6247 44.7689 38.157 44.9395 38.6588C45.11 39.1607 45.3851 39.6206 45.7465 40.0083C46.1079 40.396 46.5474 40.7026 47.0361 40.9079C47.5247 41.1131 48.0514 41.2124 48.5812 41.1991ZM56.7992 41.1991C57.1626 41.2067 57.524 41.1436 57.8632 41.0131L57.6112 39.4871C57.5194 39.5078 57.4253 39.5172 57.3312 39.5151C57.1312 39.5151 56.9112 39.3611 56.9112 38.8991V29.8271H54.8672V38.7991C54.8672 40.2571 55.3712 41.1991 56.7992 41.1991ZM61.5172 40.9991H63.5612V33.1591H61.5172V40.9991ZM62.5532 31.8991C62.7077 31.9097 62.8627 31.8887 63.0088 31.8375C63.1549 31.7862 63.289 31.7057 63.403 31.6009C63.5169 31.4961 63.6084 31.3692 63.6717 31.2279C63.735 31.0866 63.7688 30.9339 63.7712 30.7791C63.7713 30.6235 63.7392 30.4696 63.6767 30.3272C63.6142 30.1847 63.5228 30.0567 63.4083 29.9514C63.2938 29.8461 63.1587 29.7658 63.0115 29.7155C62.8643 29.6651 62.7082 29.6459 62.5532 29.6591C62.3972 29.6447 62.24 29.6629 62.0914 29.7125C61.9429 29.7622 61.8063 29.8423 61.6904 29.9476C61.5745 30.053 61.4818 30.1813 61.4183 30.3245C61.3547 30.4677 61.3216 30.6225 61.3212 30.7791C61.324 30.935 61.3587 31.0887 61.423 31.2307C61.4874 31.3727 61.5801 31.5001 61.6955 31.605C61.8109 31.7099 61.9465 31.7901 62.094 31.8407C62.2415 31.8912 62.3977 31.9111 62.5532 31.8991ZM71.3452 41.1991C72.2868 41.201 73.197 40.8613 73.9072 40.2431L73.0952 38.8851C72.6754 39.2664 72.1357 39.4892 71.5692 39.5151C70.4352 39.5151 69.6232 38.5631 69.6232 37.0931C69.6232 35.6231 70.4352 34.6431 71.6232 34.6431C72.0742 34.6583 72.5028 34.8434 72.8232 35.1611L73.8032 33.8311C73.1749 33.2714 72.3626 32.9625 71.5212 32.9631C70.9813 32.9504 70.4447 33.0496 69.945 33.2543C69.4453 33.4591 68.9934 33.7651 68.6177 34.153C68.242 34.5409 67.9506 35.0024 67.7619 35.5084C67.5732 36.0143 67.4912 36.5539 67.5212 37.0931C67.4702 37.621 67.5319 38.1538 67.7021 38.6561C67.8724 39.1584 68.1474 39.6189 68.5088 40.007C68.8703 40.3951 69.3101 40.7021 69.799 40.9076C70.288 41.1131 70.815 41.2125 71.3452 41.1991ZM77.6312 40.9991H79.6312V39.0391L80.7672 37.7511L82.6712 40.9991H84.8972L81.9292 36.3651L84.6452 33.1591H82.4052L79.6892 36.5471H79.6332V29.8271H77.6332L77.6312 40.9991ZM93.5212 37.3991H94.9632L95.4532 32.6111L95.5232 30.5251H92.9612L93.0172 32.6111L93.5212 37.3991ZM94.2352 41.1251C94.4223 41.1367 94.6097 41.1098 94.7859 41.0461C94.9622 40.9823 95.1234 40.8831 95.2598 40.7544C95.3961 40.6258 95.5045 40.4706 95.5784 40.2983C95.6523 40.1261 95.69 39.9405 95.6892 39.7531C95.689 39.5652 95.6507 39.3792 95.5766 39.2065C95.5024 39.0339 95.394 38.878 95.2579 38.7484C95.1218 38.6189 94.9608 38.5182 94.7846 38.4527C94.6085 38.3872 94.4209 38.358 94.2332 38.3671C94.0457 38.3583 93.8583 38.3876 93.6824 38.4533C93.5065 38.519 93.3457 38.6196 93.2098 38.7492C93.0739 38.8787 92.9657 39.0345 92.8917 39.207C92.8177 39.3796 92.7794 39.5653 92.7792 39.7531C92.7784 39.9407 92.8162 40.1264 92.8902 40.2988C92.9642 40.4712 93.0728 40.6266 93.2093 40.7552C93.3459 40.8839 93.5074 40.9831 93.6838 41.0467C93.8603 41.1103 94.048 41.137 94.2352 41.1251Z" fill="white"/>
<path d="M24.6055 28.3115L36.7729 45.6884" stroke="white" stroke-width="2"/>
<path d="M114.767 28.308L102.602 45.693" stroke="white" stroke-width="2.0005"/>
<path d="M63 105L68.833 119L70.9 112.9L77 110.833L63 105Z" stroke="white" stroke-width="2" stroke-linecap="round" stroke-linejoin="round"/>
<path d="M71.25 113.25L76.2 118.2" stroke="white" stroke-width="2" stroke-linecap="round" stroke-linejoin="round"/>
</g>
<defs>
<clipPath id="clip0_286_916">
<rect width="140" height="140" fill="white"/>
</clipPath>
</defs>
</svg>
