<svg xmlns="http://www.w3.org/2000/svg" xmlns:xlink="http://www.w3.org/1999/xlink" width="50" height="50" viewBox="0 0 50 50">
  <defs>
    <clipPath id="clip-path">
      <rect id="長方形_238" data-name="長方形 238" width="50" height="50" transform="translate(1256 2039)" fill="none" stroke="#707070" stroke-width="1"/>
    </clipPath>
  </defs>
  <g id="ico_svc04" transform="translate(-1256 -2039)" clip-path="url(#clip-path)">
    <g id="_874_ch_h" data-name="874_ch_h" transform="translate(1258 2041)">
      <rect id="長方形_46" data-name="長方形 46" width="46" height="46" fill="none"/>
      <line id="線_48" data-name="線 48" x2="8.625" transform="translate(10.542 27.313)" fill="none" stroke="#AE6938" stroke-linecap="round" stroke-linejoin="round" stroke-width="2"/>
      <line id="線_49" data-name="線 49" x2="3.833" transform="translate(10.542 32.104)" fill="none" stroke="#AE6938" stroke-linecap="round" stroke-linejoin="round" stroke-width="2"/>
      <line id="線_50" data-name="線 50" transform="translate(18.208 32.104)" fill="none" stroke="#AE6938" stroke-linecap="round" stroke-linejoin="round" stroke-width="2"/>
      <path id="パス_23" data-name="パス 23" d="M4.833,42H21.125a8.625,8.625,0,0,0,8.625-8.625v-5.75A8.625,8.625,0,0,0,21.125,19H9.625A8.625,8.625,0,0,0,1,27.625V45.833Z" transform="translate(-0.042 -0.792)" fill="none" stroke="#AE6938" stroke-linecap="round" stroke-linejoin="round" stroke-width="2"/>
      <line id="線_51" data-name="線 51" x1="8.625" transform="translate(26.833 11.979)" fill="none" stroke="#AE6938" stroke-linecap="round" stroke-linejoin="round" stroke-width="2"/>
      <line id="線_52" data-name="線 52" x1="3.833" transform="translate(31.625 16.771)" fill="none" stroke="#AE6938" stroke-linecap="round" stroke-linejoin="round" stroke-width="2"/>
      <path id="パス_24" data-name="パス 24" d="M17,15.458V11.625A8.625,8.625,0,0,1,25.625,3h11.5a8.625,8.625,0,0,1,8.625,8.625V29.833L41.917,26H33.292" transform="translate(-0.708 -0.125)" fill="none" stroke="#AE6938" stroke-linecap="round" stroke-linejoin="round" stroke-width="2"/>
    </g>
  </g>
</svg>
