<svg width="28" height="24" viewBox="0 0 28 24" fill="none" xmlns="http://www.w3.org/2000/svg">
<g clip-path="url(#clip0_7_86)">
<mask id="mask0_7_86" style="mask-type:luminance" maskUnits="userSpaceOnUse" x="0" y="0" width="28" height="24">
<path d="M28 0H0V24H28V0Z" fill="white"/>
</mask>
<g mask="url(#mask0_7_86)">
<path d="M25.305 11.8572C25.3038 11.2546 25.0667 10.6765 24.6445 10.2466C24.2222 9.81668 23.6484 9.56922 23.046 9.55719C22.8479 8.76558 22.5452 8.00388 22.146 7.29219C22.4513 7.12125 22.7136 6.88305 22.9131 6.59567C23.1127 6.30828 23.2442 5.97925 23.2977 5.63349C23.3512 5.28774 23.3252 4.93435 23.2219 4.6001C23.1185 4.26585 22.9404 3.95951 22.701 3.70431C22.4617 3.44911 22.1674 3.25174 21.8405 3.12715C21.5136 3.00257 21.1626 2.95405 20.8141 2.98526C20.4657 3.01647 20.1289 3.1266 19.8293 3.3073C19.5297 3.488 19.2751 3.73452 19.085 4.02819C18.2961 3.51603 17.4335 3.12786 16.527 2.8772C16.6084 2.54333 16.614 2.19546 16.5433 1.85915C16.4726 1.52284 16.3275 1.20665 16.1185 0.93381C15.9096 0.660971 15.6421 0.43842 15.3359 0.282519C15.0296 0.126618 14.6923 0.0413267 14.3487 0.0329156C14.0052 0.0245046 13.6642 0.0931849 13.3506 0.233912C13.0371 0.374639 12.7591 0.583838 12.537 0.846125C12.315 1.10841 12.1546 1.41712 12.0675 1.74957C11.9804 2.08201 11.969 2.42974 12.034 2.7672C11.2964 2.93278 10.5819 3.1887 9.90698 3.52919C9.72524 3.25868 9.48808 3.02989 9.21124 2.85796C8.93439 2.68603 8.62418 2.57489 8.30114 2.53192C7.9781 2.48894 7.64959 2.5151 7.33743 2.60868C7.02526 2.70225 6.73655 2.86108 6.49041 3.07467C6.24427 3.28826 6.04635 3.55171 5.90972 3.84758C5.7731 4.14345 5.7009 4.46497 5.69793 4.79085C5.69496 5.11673 5.76127 5.43952 5.89248 5.73783C6.02369 6.03614 6.21678 6.30316 6.45898 6.5212C5.89496 7.33042 5.46418 8.22475 5.18298 9.1702C4.84166 9.02958 4.4716 8.97292 4.10384 9.00498C3.73609 9.03703 3.38141 9.15687 3.06957 9.35443C2.75774 9.55198 2.49785 9.82148 2.31176 10.1403C2.12567 10.4591 2.01882 10.8179 2.00015 11.1866C1.98147 11.5552 2.05153 11.923 2.20446 12.259C2.35739 12.595 2.58871 12.8894 2.87899 13.1174C3.16927 13.3454 3.51004 13.5005 3.87267 13.5695C4.2353 13.6386 4.6092 13.6196 4.96298 13.5142C5.08636 14.1721 5.28118 14.8146 5.54397 15.4302C5.27624 15.6021 5.04708 15.8277 4.871 16.0927C4.69491 16.3577 4.57572 16.6563 4.52096 16.9697C4.4662 17.2831 4.47705 17.6045 4.55285 17.9135C4.62865 18.2225 4.76772 18.5125 4.9613 18.765C5.15487 19.0175 5.39873 19.2271 5.67745 19.3805C5.95618 19.5339 6.26373 19.6279 6.58062 19.6564C6.89751 19.6849 7.21686 19.6473 7.51849 19.5461C7.82012 19.4448 8.09745 19.2821 8.33297 19.0682C9.53695 20.0215 10.96 20.6588 12.473 20.9222L10.434 25.0012H18.121L15.928 20.8732C16.9941 20.6543 18.0129 20.248 18.937 19.6732C19.1289 19.9573 19.3817 20.195 19.6771 20.369C19.9725 20.543 20.303 20.649 20.6445 20.6791C20.986 20.7092 21.3299 20.6628 21.6512 20.5432C21.9725 20.4236 22.2631 20.2338 22.5018 19.9877C22.7404 19.7416 22.9213 19.4453 23.0309 19.1205C23.1406 18.7957 23.1765 18.4505 23.1359 18.11C23.0953 17.7696 22.9792 17.4425 22.7962 17.1526C22.6132 16.8627 22.3679 16.6173 22.078 16.4342C22.4916 15.7231 22.8078 14.9596 23.018 14.1642C23.6265 14.1592 24.2083 13.9139 24.6367 13.4817C25.065 13.0496 25.3053 12.4657 25.305 11.8572ZM21.996 9.7832C21.6973 9.92776 21.4333 10.1351 21.222 10.391C21.0108 10.647 20.8573 10.9455 20.772 11.2662H15.509L19.648 7.1272C20.044 7.42268 20.5249 7.58227 21.019 7.58219C21.038 7.58219 21.056 7.58219 21.075 7.58219C21.4885 8.26663 21.7988 9.00827 21.996 9.7832ZM18.723 5.0662C18.717 5.1352 18.712 5.20619 18.712 5.27719C18.7123 5.63579 18.7969 5.9893 18.959 6.3092L14.759 10.5092V4.5642C15.2429 4.46458 15.6819 4.21177 16.011 3.8432C16.9826 4.0802 17.9023 4.49411 18.724 5.0642L18.723 5.0662ZM12.499 3.7552C12.8041 4.13313 13.221 4.40478 13.69 4.5312V10.5142L9.59597 6.4202C9.81281 6.2061 9.98493 5.95103 10.1023 5.66984C10.2198 5.38865 10.2801 5.08692 10.28 4.7822C10.2798 4.70103 10.2755 4.61992 10.267 4.53919C10.969 4.16993 11.7213 3.90546 12.5 3.7542L12.499 3.7552ZM7.97396 7.0882C8.20502 7.08916 8.43492 7.05545 8.65597 6.9882L12.937 11.2692H6.60998C6.6017 10.7592 6.42364 10.2666 6.10397 9.8692C6.35293 8.84454 6.79852 7.87798 7.41598 7.0232C7.59867 7.06724 7.78605 7.08974 7.97396 7.0882ZM5.94897 12.9212C6.11856 12.748 6.25995 12.5492 6.36797 12.3322H12.937L8.84399 16.4252C8.66024 16.0247 8.36528 15.6853 7.99423 15.4476C7.62318 15.2099 7.19165 15.0837 6.75097 15.0842C6.68597 15.0842 6.62198 15.0842 6.55898 15.0942C6.25567 14.4014 6.05034 13.6707 5.94897 12.9212ZM8.91796 18.1742C8.96781 18.0363 9.00432 17.894 9.02697 17.7492L13.691 13.0862V18.4862L12.973 19.9212C11.4863 19.7225 10.0832 19.1187 8.91796 18.1742ZM15.396 19.8742L14.755 18.6692V13.0842L18.867 17.1962C18.6517 17.5533 18.5379 17.9623 18.538 18.3792C18.5385 18.4684 18.5442 18.5576 18.555 18.6462C17.6001 19.2738 16.5237 19.6932 15.396 19.8772V19.8742ZM20.844 16.0742C20.4071 16.0742 19.9792 16.1991 19.611 16.4342L15.511 12.3342H20.745C20.817 12.6738 20.9647 12.9929 21.1772 13.2675C21.3896 13.5421 21.6613 13.7652 21.972 13.9202C21.7677 14.6835 21.453 15.4128 21.038 16.0852C20.972 16.0772 20.909 16.0742 20.844 16.0742Z" fill="#333333"/>
</g>
</g>
<defs>
<clipPath id="clip0_7_86">
<rect width="28" height="24" fill="white"/>
</clipPath>
</defs>
</svg>
