<svg width="107" height="64" viewBox="0 0 107 64" fill="none" xmlns="http://www.w3.org/2000/svg">
<g clip-path="url(#clip0_293_897)">
<path d="M7.75391 30.8008H6.04297C6.01172 30.5794 5.94792 30.3828 5.85156 30.2109C5.75521 30.0365 5.63151 29.888 5.48047 29.7656C5.32943 29.6432 5.15495 29.5495 4.95703 29.4844C4.76172 29.4193 4.54948 29.3867 4.32031 29.3867C3.90625 29.3867 3.54557 29.4896 3.23828 29.6953C2.93099 29.8984 2.69271 30.1953 2.52344 30.5859C2.35417 30.974 2.26953 31.4453 2.26953 32C2.26953 32.5703 2.35417 33.0495 2.52344 33.4375C2.69531 33.8255 2.9349 34.1185 3.24219 34.3164C3.54948 34.5143 3.90495 34.6133 4.30859 34.6133C4.53516 34.6133 4.74479 34.5833 4.9375 34.5234C5.13281 34.4635 5.30599 34.3763 5.45703 34.2617C5.60807 34.1445 5.73307 34.0026 5.83203 33.8359C5.93359 33.6693 6.00391 33.4792 6.04297 33.2656L7.75391 33.2734C7.70964 33.6406 7.59896 33.9948 7.42188 34.3359C7.2474 34.6745 7.01172 34.9779 6.71484 35.2461C6.42057 35.5117 6.06901 35.7227 5.66016 35.8789C5.25391 36.0326 4.79427 36.1094 4.28125 36.1094C3.56771 36.1094 2.92969 35.9479 2.36719 35.625C1.80729 35.3021 1.36458 34.8346 1.03906 34.2227C0.716146 33.6107 0.554688 32.8698 0.554688 32C0.554688 31.1276 0.71875 30.3854 1.04688 29.7734C1.375 29.1615 1.82031 28.6953 2.38281 28.375C2.94531 28.0521 3.57813 27.8906 4.28125 27.8906C4.74479 27.8906 5.17448 27.9557 5.57031 28.0859C5.96875 28.2161 6.32161 28.4062 6.62891 28.6562C6.9362 28.9036 7.1862 29.207 7.37891 29.5664C7.57422 29.9258 7.69922 30.3372 7.75391 30.8008ZM10.1953 36H8.38281L11.1445 28H13.3242L16.082 36H14.2695L12.2656 29.8281H12.2031L10.1953 36ZM10.082 32.8555H14.3633V34.1758H10.082V32.8555ZM21.2021 30.3008C21.1709 29.9857 21.0368 29.7409 20.7998 29.5664C20.5628 29.3919 20.2412 29.3047 19.835 29.3047C19.5589 29.3047 19.3258 29.3437 19.1357 29.4219C18.9456 29.4974 18.7998 29.6029 18.6982 29.7383C18.5993 29.8737 18.5498 30.0273 18.5498 30.1992C18.5446 30.3424 18.5745 30.4674 18.6396 30.5742C18.7074 30.681 18.7998 30.7734 18.917 30.8516C19.0342 30.9271 19.1696 30.9935 19.3232 31.0508C19.4769 31.1055 19.641 31.1523 19.8154 31.1914L20.5342 31.3633C20.8831 31.4414 21.2035 31.5456 21.4951 31.6758C21.7868 31.806 22.0394 31.9661 22.2529 32.1562C22.4665 32.3464 22.6318 32.5703 22.749 32.8281C22.8688 33.0859 22.93 33.3815 22.9326 33.7148C22.93 34.2044 22.805 34.6289 22.5576 34.9883C22.3128 35.3451 21.9587 35.6224 21.4951 35.8203C21.0342 36.0156 20.4782 36.1133 19.8271 36.1133C19.1813 36.1133 18.6188 36.0143 18.1396 35.8164C17.6631 35.6185 17.2907 35.3255 17.0225 34.9375C16.7568 34.5469 16.6175 34.0638 16.6045 33.4883H18.2412C18.2594 33.7565 18.3363 33.9805 18.4717 34.1602C18.6097 34.3372 18.7933 34.4714 19.0225 34.5625C19.2542 34.651 19.516 34.6953 19.8076 34.6953C20.0941 34.6953 20.3428 34.6536 20.5537 34.5703C20.7673 34.487 20.9326 34.3711 21.0498 34.2227C21.167 34.0742 21.2256 33.9036 21.2256 33.7109C21.2256 33.5312 21.1722 33.3802 21.0654 33.2578C20.9613 33.1354 20.8076 33.0312 20.6045 32.9453C20.404 32.8594 20.1579 32.7812 19.8662 32.7109L18.9951 32.4922C18.3206 32.3281 17.7881 32.0716 17.3975 31.7227C17.0068 31.3737 16.8128 30.9036 16.8154 30.3125C16.8128 29.8281 16.9417 29.4049 17.2021 29.043C17.4652 28.681 17.8258 28.3984 18.2842 28.1953C18.7425 27.9922 19.2633 27.8906 19.8467 27.8906C20.4404 27.8906 20.9587 27.9922 21.4014 28.1953C21.8467 28.3984 22.193 28.681 22.4404 29.043C22.6878 29.4049 22.8154 29.8242 22.8232 30.3008H21.2021ZM24.0703 36V28H29.4609V29.3945H25.7617V31.3008H29.1836V32.6953H25.7617V34.6055H29.4766V36H24.0703Z" fill="#AE6938"/>
<path d="M67.6349 42.4474C65.9247 42.4408 64.4531 42.0199 63.2202 41.1847C61.9938 40.3494 61.0492 39.1397 60.3864 37.5554C59.7301 35.9711 59.4053 34.0653 59.4119 31.8381C59.4119 29.6174 59.7401 27.7249 60.3963 26.1605C61.0592 24.5961 62.0038 23.4062 63.2301 22.5909C64.4631 21.7689 65.9313 21.358 67.6349 21.358C69.3385 21.358 70.8035 21.7689 72.0298 22.5909C73.2628 23.4129 74.2107 24.6061 74.8736 26.1705C75.5365 27.7282 75.8646 29.6174 75.858 31.8381C75.858 34.072 75.5265 35.9811 74.8636 37.5653C74.2074 39.1496 73.2661 40.3594 72.0398 41.1946C70.8134 42.0298 69.3452 42.4474 67.6349 42.4474ZM67.6349 38.8778C68.8016 38.8778 69.733 38.2912 70.429 37.1179C71.125 35.9446 71.4697 34.1847 71.4631 31.8381C71.4631 30.2936 71.304 29.0076 70.9858 27.9801C70.6742 26.9527 70.2301 26.1804 69.6534 25.6634C69.0833 25.1463 68.4105 24.8878 67.6349 24.8878C66.4749 24.8878 65.5469 25.4678 64.8509 26.6278C64.1548 27.7879 63.8035 29.5246 63.7969 31.8381C63.7969 33.4025 63.9527 34.7083 64.2642 35.7557C64.5824 36.7964 65.0298 37.5786 65.6065 38.1023C66.1832 38.6193 66.8594 38.8778 67.6349 38.8778ZM87.7873 21.6364V42H83.4819V25.723H83.3626L78.6992 28.6463V24.8281L83.7404 21.6364H87.7873Z" fill="#AE6938"/>
<path d="M75 63C92.1208 63 106 49.1208 106 32C106 14.8792 92.1208 1 75 1C57.8792 1 44 14.8792 44 32C44 49.1208 57.8792 63 75 63Z" stroke="#AE6938" stroke-width="2"/>
</g>
<defs>
<clipPath id="clip0_293_897">
<rect width="107" height="64" fill="white"/>
</clipPath>
</defs>
</svg>
