<svg width="28" height="24" viewBox="0 0 28 24" fill="none" xmlns="http://www.w3.org/2000/svg">
<g clip-path="url(#clip0_7_65)">
<mask id="mask0_7_65" style="mask-type:luminance" maskUnits="userSpaceOnUse" x="0" y="0" width="28" height="24">
<path d="M28 0H0V24H28V0Z" fill="white"/>
</mask>
<g mask="url(#mask0_7_65)">
<path d="M26.795 20.868V8.72601H19.523V2.58301H8.81V5.65601H1.045V20.868H0V22.298H27.857V20.868H26.795ZM8.81 21.225H6.858V18.325H4.717V21.225H2.5V7.08301H8.81V21.225ZM18.045 21.225H15.878V17.598H12.427V21.23H10.295V3.72001H18.045V21.225ZM25.357 21.225H23.662V19.325H21.172V21.225H19.523V10.167H25.356L25.357 21.225Z" fill="#333333"/>
<path d="M11.309 5.19287H13.597V7.46087H11.309V5.19287Z" fill="#333333"/>
<path d="M16.935 5.19287H14.647V7.47887H16.935V5.19287Z" fill="#333333"/>
<path d="M16.935 9.33789H14.647V11.6239H16.935V9.33789Z" fill="#333333"/>
<path d="M13.597 9.33789H11.309V11.6239H13.597V9.33789Z" fill="#333333"/>
<path d="M16.935 13.6158H14.647V15.9028H16.935V13.6158Z" fill="#333333"/>
<path d="M3.87 8.49988H7.733V9.57088H3.87V8.49988Z" fill="#333333"/>
<path d="M3.87 10.6428H7.733V11.7138H3.87V10.6428Z" fill="#333333"/>
<path d="M3.87 13.0328H7.733V14.1038H3.87V13.0328Z" fill="#333333"/>
<path d="M3.87 15.2988H7.733V16.3698H3.87V15.2988Z" fill="#333333"/>
<path d="M13.597 13.6158H11.309V15.9028H13.597V13.6158Z" fill="#333333"/>
<path d="M20.682 11.6208H24.241V12.6898H20.682V11.6208Z" fill="#333333"/>
<path d="M20.682 13.7649H24.241V14.8359H20.682V13.7649Z" fill="#333333"/>
<path d="M20.682 15.9069H24.241V16.9759H20.682V15.9069Z" fill="#333333"/>
</g>
</g>
<defs>
<clipPath id="clip0_7_65">
<rect width="28" height="24" fill="white"/>
</clipPath>
</defs>
</svg>
