<svg width="216" height="19" viewBox="0 0 216 19" fill="none" xmlns="http://www.w3.org/2000/svg">
<g clip-path="url(#clip0_272_888)">
<path d="M7.86 3.72H2.06V5.36H16.44V3.72H10.28V2.9H17.64V1.2H10.28V0H7.86V1.2H0.68V2.9H7.86V3.72ZM13.52 15.34V16.56H4.86V15.34H13.52ZM2.52 18.7H4.86V18.16H13.52V18.68H15.98V13.76H2.52V18.7ZM11.7 9.98C11.5524 10.4036 11.3787 10.8178 11.18 11.22H7.06C6.92006 10.7871 6.73223 10.3712 6.5 9.98H11.7ZM5.18 7.52H13.16V8.52H5.18V7.52ZM13.64 11.22C13.9293 10.8217 14.1964 10.4077 14.44 9.98H15.56V6.02H2.92V9.98H4.96L4.12 10.18C4.30093 10.5138 4.45476 10.8616 4.58 11.22H0V13.02H18.26V11.22H13.64ZM37.94 3.36L36.36 4C36.9403 4.90204 37.4678 5.83694 37.94 6.8L39.54 6.1C39.0593 5.15692 38.5251 4.2421 37.94 3.36ZM40.32 2.46L38.74 3.1C39.3423 3.97824 39.8772 4.90089 40.34 5.86L41.94 5.18C41.4507 4.24407 40.9099 3.33601 40.32 2.46ZM33.04 7.36C33.82 6.8 35.34 5.58 35.88 5.14L35.28 3.58C33.6539 2.64265 31.947 1.85283 30.18 1.22L28.7 3.06C30.0855 3.55501 31.4133 4.19877 32.66 4.98C32.38 5.2 31.9 5.58 31.42 5.9L33.04 7.36ZM28.44 17.64C29.4894 17.8286 30.5537 17.9224 31.62 17.92C33.68 17.92 35.56 17.14 35.56 14.48C35.56 12.66 34.4 10.88 32.28 8.74C31.78 8.22 31.26 7.74 30.68 7.14L28.72 8.78C29.3662 9.25994 29.9808 9.78102 30.56 10.34C31.44 11.2 32.82 13 32.82 14.2C32.82 15.14 32.12 15.5 31.12 15.5C30.0822 15.4881 29.0516 15.3264 28.06 15.02L28.44 17.64ZM41.42 15.26C40.6146 12.982 39.4828 10.8329 38.06 8.88L35.9 10.02C37.3314 11.9834 38.389 14.1936 39.02 16.54L41.42 15.26ZM29.26 12.8L27.76 10.84C26.2829 12.3775 24.5841 13.6853 22.72 14.72L24.22 16.88C26.0629 15.7346 27.7559 14.364 29.26 12.8ZM52.38 3.8C52.2291 4.46304 52.0422 5.11734 51.82 5.76L52.94 5.98H49.62L50.42 5.8C50.329 5.11459 50.1544 4.44291 49.9 3.8H52.38ZM53.22 10.64C52.0075 11.7759 50.5499 12.6176 48.96 13.1C49.04 12.14 49.08 11.2 49.08 10.38V10.08C49.5063 10.4323 49.895 10.8278 50.24 11.26C51.8074 10.7114 53.249 9.85457 54.48 8.74L52.7 8C51.6331 8.86538 50.4015 9.50499 49.08 9.88V7.96H55.48V5.98H53.8C54 5.44 54.24 4.72 54.54 3.96L53.74 3.8H55.4V1.86H52.24V0.139999H49.92V1.86H46.64V3.8H49.02L48 4C48.1994 4.64716 48.3465 5.30929 48.44 5.98H46.96V10.36C46.96 12.3 46.9 14.88 45.88 16.74C46.4916 17.1485 47.0493 17.6323 47.54 18.18C48.3532 16.6161 48.8301 14.8993 48.94 13.14C49.428 13.5301 49.8648 13.9804 50.24 14.48C52.0443 13.8176 53.6727 12.7502 55 11.36L53.22 10.64ZM53.64 13.48C52.3604 15.1221 50.5748 16.2961 48.56 16.82C49.0585 17.2842 49.4894 17.816 49.84 18.4C52.1817 17.652 54.2081 16.1463 55.6 14.12L53.64 13.48ZM58.12 11.72H62.16V12.96H58.12V11.72ZM58.12 8.8H62.16V10.04H58.12V8.8ZM58.12 5.92H62.16V7.14H58.12V5.92ZM64.3 14.72V4.12H60.9C61.04 3.7 61.18 3.26 61.32 2.8H64.66V0.799999H55.58V2.8H58.92C58.88 3.24 58.8 3.68 58.72 4.12H56.08V14.72H57.72C56.6477 15.775 55.3944 16.6286 54.02 17.24C54.5889 17.6936 55.1175 18.1954 55.6 18.74C57.1065 18.0047 58.4897 17.0399 59.7 15.88L57.88 14.72H64.3ZM60.48 15.9C61.5211 16.7457 62.4911 17.6755 63.38 18.68L65.24 17.42C64.3043 16.4619 63.2945 15.5792 62.22 14.78L60.48 15.9ZM81.2 14.08C81.18 13.18 81.14 11.72 81.12 10.62C82.34 10.06 83.46 9.62 84.34 9.28C85.1092 8.95329 85.8973 8.67279 86.7 8.44L85.7 6.14C84.98 6.48 84.28 6.82 83.52 7.16C82.7 7.52 81.86 7.86 80.84 8.34C80.6071 7.84663 80.2301 7.4354 79.7589 7.16049C79.2876 6.88559 78.7441 6.7599 78.2 6.8C77.435 6.794 76.6756 6.92962 75.96 7.2C76.4027 6.57108 76.7844 5.90138 77.1 5.2C79.2607 5.13499 81.4167 4.96144 83.56 4.68L83.58 2.36C81.727 2.66815 79.8568 2.86185 77.98 2.94C78.22 2.14 78.36 1.46 78.46 0.98L75.86 0.759998C75.8057 1.5252 75.6716 2.28264 75.46 3.02H74.5C73.3363 3.02644 72.1736 2.95293 71.02 2.8V5.12C72.1 5.22 73.56 5.26 74.36 5.26H74.6C73.4878 7.32222 72.0105 9.16544 70.24 10.7L72.36 12.28C72.932 11.5194 73.5463 10.7916 74.2 10.1C75.0389 9.29278 76.1379 8.81066 77.3 8.74C77.5693 8.72322 77.8384 8.77715 78.0805 8.89643C78.3225 9.01571 78.5292 9.1962 78.68 9.42C76.42 10.58 74.02 12.18 74.02 14.7C74.02 17.26 76.36 18 79.46 18C81.3309 17.989 83.2 17.8822 85.06 17.68L85.14 15.1C83.2888 15.468 81.4073 15.6622 79.52 15.68C77.58 15.68 76.64 15.38 76.64 14.28C76.64 13.3 77.44 12.52 78.9 11.72C78.88 12.58 78.86 13.5 78.82 14.08H81.2ZM99.18 16.5C97.8497 14.9225 96.3914 13.4575 94.82 12.12L92.74 13.92C94.2921 15.2729 95.7303 16.7512 97.04 18.34L99.18 16.5ZM127.46 8.72H131.14V9.92H127.46V8.72ZM127.46 5.82H131.14V6.98H127.46V5.82ZM127.46 2.9H131.14V4.06H127.46V2.9ZM123.26 12.56C124.199 13.429 125.081 14.3576 125.9 15.34L127.62 13.9C127.14 13.34 126.28 12.5 125.5 11.78H133.42V1.02H125.3V11.6L124.9 11.24L123.26 12.56ZM119.44 12.02H121.7V7.84C122.42 8.5 123.16 9.22 123.62 9.72L124.86 7.82C123.844 7.03415 122.79 6.29989 121.7 5.62V4.88H124.52V2.86H121.7V0.039999H119.44V2.86H116.16V4.88H119.06C118.297 6.61575 117.132 8.14468 115.66 9.34C116.237 9.81701 116.748 10.3685 117.18 10.98C118.084 10.1408 118.847 9.16161 119.44 8.08V12.02ZM117.98 17.6C118.712 16.2191 119.276 14.7553 119.66 13.24L117.54 12.4C117.19 13.8595 116.602 15.2514 115.8 16.52L117.98 17.6ZM124.02 16.2C122.94 16.2 122.74 16.12 122.74 15.52V12.82H120.4V15.56C120.4 17.64 121.08 18.3 123.8 18.3H127.4C129.6 18.3 130.26 17.6 130.56 14.74C129.798 14.6062 129.07 14.3205 128.42 13.9C128.3 15.92 128.16 16.2 127.22 16.2H124.02ZM130 13.1C130.78 14.44 131.88 16.2 132.36 17.26L134.58 16.12C134.04 15.08 132.88 13.38 132.08 12.14L130 13.1ZM142.58 0.039999C141.787 2.85119 140.441 5.4758 138.62 7.76C139.072 8.57956 139.453 9.43596 139.76 10.32C140.208 9.80056 140.622 9.25276 141 8.68V18.68H143.26V4.58C143.836 3.31477 144.343 2.01958 144.78 0.699999L142.58 0.039999ZM147.16 5.64H149.74V7.16H147.16V5.64ZM151.16 2.96C150.926 3.33171 150.665 3.68597 150.38 4.02H147.28C147.58 3.68 147.86 3.32 148.14 2.96H151.16ZM154.72 7.16H151.86V5.64H154.72V7.16ZM150.02 16.36C149.901 16.5013 149.75 16.6115 149.579 16.6812C149.409 16.7509 149.224 16.778 149.04 16.76C148.592 16.7587 148.145 16.732 147.7 16.68C148.668 16.1361 149.603 15.5351 150.5 14.88C150.529 15.4158 150.358 15.9432 150.02 16.36ZM156.08 9.16C155.47 9.79865 154.822 10.3998 154.14 10.96C153.882 10.2404 153.668 9.50572 153.5 8.76H157V4.02H152.9C153.374 3.4038 153.814 2.7629 154.22 2.1L152.82 1.1L152.4 1.24H149.32C149.48 0.979999 149.64 0.699999 149.78 0.439999L147.54 0.039999C146.598 1.85694 145.233 3.42085 143.56 4.6C144.091 4.88804 144.582 5.2444 145.02 5.66V8.76H148.06C146.753 9.46492 145.371 10.0217 143.94 10.42C144.413 10.9038 144.854 11.4183 145.26 11.96C146.331 11.5747 147.368 11.0997 148.36 10.54C148.53 10.6898 148.69 10.8501 148.84 11.02C147.367 11.9834 145.765 12.731 144.08 13.24C144.499 13.6877 144.861 14.1847 145.16 14.72C146.775 14.0554 148.317 13.2242 149.76 12.24C149.88 12.48 150 12.7 150.1 12.94C148.204 14.4457 146.049 15.5913 143.74 16.32C144.23 16.8237 144.654 17.3883 145 18C145.885 17.6332 146.747 17.2124 147.58 16.74C147.869 17.3417 148.039 17.9937 148.08 18.66C148.58 18.7 149.08 18.72 149.48 18.72C149.87 18.7325 150.259 18.6663 150.623 18.5255C150.988 18.3846 151.32 18.1719 151.6 17.9C153.14 16.58 153.18 12.32 149.96 9.58C150.348 9.32769 150.722 9.05394 151.08 8.76H151.48C152.32 12.8 153.76 16.1 156.42 17.9C156.831 17.2074 157.343 16.5804 157.94 16.04C156.641 15.231 155.594 14.0739 154.92 12.7C155.887 12.0571 156.809 11.3488 157.68 10.58L156.08 9.16ZM169.6 10.38C169.589 10.1756 169.62 9.97102 169.692 9.7793C169.764 9.58758 169.875 9.41287 170.017 9.26622C170.16 9.11958 170.332 9.0042 170.522 8.92739C170.712 8.85058 170.915 8.81401 171.12 8.82C171.38 8.80535 171.639 8.86299 171.869 8.98654C172.098 9.11009 172.289 9.29472 172.42 9.52C172.68 11.24 171.94 11.86 171.12 11.86C170.922 11.8665 170.725 11.8329 170.54 11.7613C170.355 11.6897 170.187 11.5816 170.045 11.4434C169.903 11.3052 169.791 11.1398 169.714 10.9571C169.638 10.7744 169.599 10.5781 169.6 10.38ZM180.16 3.2C179.12 3.18 176.42 3.2 174.42 3.2C174.42 2.96 174.44 2.76 174.44 2.6C174.46 2.28 174.52 1.22 174.58 0.9H171.7C171.797 1.46886 171.857 2.04339 171.88 2.62C171.899 2.81943 171.905 3.01978 171.9 3.22C169.24 3.26 165.64 3.36 163.38 3.36L163.44 5.76C165.88 5.62 168.94 5.5 171.94 5.46L171.96 6.78C171.702 6.73859 171.441 6.71853 171.18 6.72C170.674 6.68871 170.166 6.76103 169.689 6.93253C169.211 7.10403 168.774 7.37111 168.403 7.71743C168.033 8.06376 167.737 8.48206 167.533 8.94674C167.33 9.41142 167.223 9.91273 167.22 10.42C167.2 10.885 167.273 11.3493 167.435 11.7856C167.597 12.222 167.844 12.6215 168.163 12.9607C168.482 13.2999 168.865 13.5719 169.29 13.7607C169.716 13.9495 170.175 14.0512 170.64 14.06C170.943 14.0586 171.244 14.0251 171.54 13.96C170.191 15.183 168.504 15.9706 166.7 16.22L168.8 18.34C173.64 16.98 175.16 13.7 175.16 11.12C175.19 10.1536 174.932 9.19995 174.42 8.38C174.42 7.52 174.42 6.44 174.4 5.44C177.08 5.44 178.94 5.48 180.14 5.54L180.16 3.2ZM194.56 15.76C193.4 15.76 192.56 15.26 192.56 14.52C192.56 14.02 193.04 13.58 193.78 13.58C194.86 13.58 195.6 14.42 195.72 15.7C195.335 15.7415 194.947 15.7615 194.56 15.76ZM198.92 1.48C198.42 1.58728 197.911 1.65417 197.4 1.68C196.28 1.78 192.04 1.88 191 1.88C190.44 1.88 189.76 1.84 189.2 1.78L189.28 4.36C189.816 4.27306 190.357 4.21962 190.9 4.2C191.94 4.12 194.66 4 195.68 3.98C194.7 4.84 192.64 6.5 191.54 7.42C190.36 8.38 187.98 10.4 186.58 11.54L188.38 13.4C190.5 11 192.48 9.38 195.52 9.38C197.82 9.38 199.62 10.58 199.62 12.36C199.64 12.9185 199.498 13.4709 199.21 13.9502C198.923 14.4294 198.502 14.815 198 15.06C197.85 14.0696 197.332 13.172 196.55 12.5457C195.768 11.9194 194.779 11.6104 193.78 11.68C193.344 11.6484 192.906 11.703 192.491 11.8407C192.076 11.9784 191.693 12.1965 191.362 12.4825C191.031 12.7685 190.76 13.1169 190.564 13.5076C190.368 13.8984 190.251 14.324 190.22 14.76C190.22 16.74 192.3 18 195.06 18C199.84 18 202.22 15.52 202.22 12.4C202.22 9.52 199.66 7.42 196.3 7.42C195.673 7.40535 195.047 7.47942 194.44 7.64C195.68 6.64 197.76 4.88 198.82 4.14C199.26 3.84 199.72 3.54 200.2 3.24L198.92 1.48ZM211.8 12C210.945 12.0074 210.127 12.3517 209.524 12.9583C208.921 13.5649 208.582 14.3848 208.58 15.24C208.582 16.0952 208.921 16.9151 209.524 17.5217C210.127 18.1283 210.945 18.4726 211.8 18.48C212.226 18.4801 212.647 18.3964 213.04 18.2336C213.433 18.0709 213.79 17.8322 214.091 17.5313C214.392 17.2304 214.631 16.8732 214.794 16.48C214.956 16.0869 215.04 15.6655 215.04 15.24C215.04 14.8145 214.956 14.3931 214.794 13.9999C214.631 13.6068 214.392 13.2496 214.091 12.9487C213.79 12.6478 213.433 12.4091 213.04 12.2464C212.647 12.0836 212.226 11.9999 211.8 12ZM211.8 17.02C211.328 17.0189 210.876 16.8311 210.543 16.4975C210.209 16.1639 210.021 15.7118 210.02 15.24C210.02 14.7661 210.207 14.3112 210.54 13.9742C210.873 13.6372 211.326 13.4453 211.8 13.44C212.037 13.4391 212.271 13.485 212.49 13.5751C212.709 13.6653 212.908 13.7978 213.075 13.9651C213.242 14.1325 213.375 14.3313 213.465 14.5501C213.555 14.7689 213.601 15.0034 213.6 15.24C213.601 15.4756 213.554 15.7089 213.464 15.9265C213.373 16.144 213.24 16.3413 213.073 16.507C212.905 16.6726 212.706 16.8033 212.488 16.8914C212.269 16.9795 212.036 17.0232 211.8 17.02Z" fill="black"/>
</g>
<defs>
<clipPath id="clip0_272_888">
<rect width="215.04" height="18.74" fill="white"/>
</clipPath>
</defs>
</svg>
