<svg width="845" height="236" viewBox="0 0 845 236" fill="none" xmlns="http://www.w3.org/2000/svg">
<g clip-path="url(#clip0_272_885)">
<path d="M26.78 89.18H6.76V1.56H26.78V89.18ZM61.75 89.18H41.73L49.27 1.56H71.24L83.46 33.28C85.54 38.5667 87.3167 43.42 88.79 47.84C90.2633 52.26 91.2167 55.38 91.65 57.2L92.3 59.8C93.6867 54.08 96.72 45.24 101.4 33.28L113.75 1.56H135.72L144.82 89.18H124.8L121.55 55.25L119.86 29.64C117.607 36.14 114.487 44.6767 110.5 55.25L98.15 88.27H86.32L74.1 55.25C72.1067 49.8767 70.4167 45.0667 69.03 40.82C67.6433 36.5733 66.7333 33.6267 66.3 31.98L65.65 29.64C65.65 35.7933 65.26 44.33 64.48 55.25L61.75 89.18ZM184.99 52L184.08 55.12H205.14L204.23 52C201.717 43.5067 199.658 36.27 198.055 30.29C196.452 24.31 195.477 20.4533 195.13 18.72L194.61 16.12C193.917 20.8867 190.71 32.8467 184.99 52ZM173.94 89.18H153.01L182.26 1.56H207.48L236.73 89.18H215.28L209.95 71.24H179.27L173.94 89.18ZM322.4 81.12C314.08 87.1867 303.593 90.22 290.94 90.22C276.9 90.22 265.503 86.19 256.75 78.13C247.997 70.07 243.62 59.1067 243.62 45.24C243.62 31.5467 248.192 20.5833 257.335 12.35C266.478 4.11666 278.07 0 292.11 0C301.99 0 310.527 1.82 317.72 5.46V25.48C309.967 20.8703 301.129 18.4028 292.11 18.33C283.877 18.33 277.333 20.7783 272.48 25.675C267.627 30.5717 265.2 37.0933 265.2 45.24C265.2 53.4733 267.583 60.0167 272.35 64.87C277.117 69.7233 283.617 72.15 291.85 72.15C295.597 72.1468 299.323 71.5771 302.9 70.46V53.95H288.73V36.92H322.4V81.12ZM358.67 89.18H338.65V1.56H358.67V89.18ZM395.59 89.18H375.57V1.56H397.54L417.95 37.83C420.81 42.9433 423.302 47.7317 425.425 52.195C426.954 55.2637 428.322 58.4096 429.525 61.62L430.565 64.48C429.569 55.6331 429.135 46.7319 429.265 37.83V1.56H449.285V89.18H427.31L406.38 52.91C403.607 48.23 401.158 43.615 399.035 39.065C396.912 34.515 395.46 31.1567 394.68 28.99L393.64 25.74C395.029 34.7285 395.681 43.8153 395.59 52.91V89.18ZM519.35 89.18H464.88V1.56H518.83V17.55H485.03V37.44H515.19V53.3H485.03V73.19H519.35V89.18ZM31.98 197L31.07 200.12H52.13L51.22 197C48.7067 188.507 46.6483 181.27 45.045 175.29C43.4417 169.31 42.4667 165.453 42.12 163.72L41.6 161.12C40.9067 165.887 37.7 177.847 31.98 197ZM20.93 234.18H0L29.25 146.56H54.47L83.72 234.18H62.27L56.94 216.24H26.26L20.93 234.18ZM197.34 234.18H177.19V199.21H145.08V234.18H125.06V146.56H145.08V182.18H177.19V146.56H197.34V234.18ZM239.46 197L238.55 200.12H259.61L258.7 197C256.187 188.507 254.128 181.27 252.525 175.29C250.922 169.31 249.947 165.453 249.6 163.72L249.08 161.12C248.387 165.887 245.18 177.847 239.46 197ZM228.41 234.18H207.48L236.73 146.56H261.95L291.2 234.18H269.75L264.42 216.24H233.74L228.41 234.18ZM331.5 205.84H321.36V234.18H301.34V146.56H331.5C341.207 146.56 349.072 149.29 355.095 154.75C358.027 157.348 360.356 160.556 361.917 164.149C363.478 167.742 364.233 171.634 364.13 175.55C364.13 185.17 360.988 192.623 354.705 197.91C348.422 203.197 340.687 205.84 331.5 205.84ZM329.16 162.55H321.36V189.98H327.99C338.563 189.98 343.85 185.17 343.85 175.55C343.85 166.883 338.953 162.55 329.16 162.55ZM403.39 205.84H393.25V234.18H373.23V146.56H403.39C413.097 146.56 420.963 149.29 426.99 154.75C429.923 157.348 432.251 160.556 433.812 164.149C435.373 167.742 436.128 171.634 436.025 175.55C436.025 185.17 432.883 192.623 426.6 197.91C420.317 203.197 412.58 205.84 403.39 205.84ZM401.05 162.55H393.25V189.98H399.88C410.453 189.98 415.74 185.17 415.74 175.55C415.74 166.883 410.843 162.55 401.05 162.55ZM488.28 234.18H468.26V202.07L438.36 146.56H461.76L467.09 159.3C469.863 165.887 472.16 171.52 473.98 176.2C475.8 180.88 476.97 183.913 477.49 185.3L478.14 187.38C479.007 183.48 482.82 174.12 489.58 159.3L495.3 146.56H518.57L488.28 201.94V234.18ZM607.75 201.16H578.76V234.18H558.61V146.56H612.04V162.55H578.76V185.17H607.75V201.16ZM649.61 197L648.7 200.12H669.76L668.85 197C666.337 188.507 664.278 181.27 662.675 175.29C661.072 169.31 660.097 165.453 659.75 163.72L659.23 161.12C658.537 165.887 655.33 177.847 649.61 197ZM638.56 234.18H617.63L646.88 146.56H672.1L701.35 234.18H679.9L674.57 216.24H643.89L638.56 234.18ZM776.23 230.28C770.943 233.573 763.317 235.22 753.35 235.22C740.523 235.22 729.798 231.082 721.175 222.805C712.552 214.528 708.24 203.803 708.24 190.63C708.24 177.283 712.422 166.407 720.785 158C729.148 149.593 740.048 145.39 753.485 145.39C763.365 145.39 770.948 147.037 776.235 150.33V169.57C769.705 165.575 762.18 163.502 754.525 163.59C751.229 163.517 747.954 164.132 744.91 165.397C741.866 166.662 739.119 168.548 736.845 170.935C732.078 175.832 729.695 182.397 729.695 190.63C729.695 198.69 732.078 205.082 736.845 209.805C741.612 214.528 747.765 216.89 755.305 216.89C763.452 216.89 770.428 214.81 776.235 210.65L776.23 230.28ZM844.35 234.18H789.88V146.56H843.83V162.55H810.03V182.44H840.19V198.3H810.03V218.19H844.35V234.18Z" fill="black"/>
</g>
<defs>
<clipPath id="clip0_272_885">
<rect width="844.35" height="235.22" fill="white"/>
</clipPath>
</defs>
</svg>
